<svg width="199" height="102" viewBox="0 0 199 102" fill="none" xmlns="http://www.w3.org/2000/svg">
<path d="M55.4311 3.58933V4.80215H38.9958V3.58933H39.5644L39.5733 3.44415C39.5733 1.55679 41.1813 0 43.1535 0H51.5688C53.5411 0 55.149 1.55679 55.149 3.46872L55.1579 3.58933H55.4311Z" fill="#FFE2B8"/>
<path d="M63.8818 98.0824H61.0434L61.1411 99.6704C61.1789 100.276 60.9701 100.85 60.557 101.292C60.1372 101.743 59.5398 102 58.9179 102H35.8064C35.1845 102 34.5871 101.743 34.1673 101.292C33.7542 100.85 33.5454 100.274 33.5832 99.6749L33.6809 98.0824H30.5471V96.8629H63.884V98.0824H63.8818Z" fill="#FFE2B8"/>
<path d="M72.4837 91.4286L72.0883 87.2652L72.0039 86.4031L71.9506 85.8447L71.6819 83.0058L71.6286 82.4452L71.3576 79.6063L71.3043 79.0457L71.0356 76.2069L70.9823 75.6485L70.7091 72.8074L70.658 72.249L70.0561 65.9169L69.1988 56.9178L69.1744 56.6588L68.668 51.3205L68.6147 50.7711L68.3482 47.9903L68.2993 47.4431L68.2594 47.0321L68.0306 44.6601L67.9818 44.1106L67.7175 41.3276L67.6642 40.7804L67.3976 37.9974L67.3488 37.4501L67.291 36.8649L67.2377 36.311L67.2088 35.9961L66.3205 26.6531L66.2672 26.0925L65.994 23.2536L65.9407 22.693L65.6986 20.1266L65.6719 19.8541L65.6519 19.6353L65.6186 19.2958L65.3477 16.4547L65.2944 15.8963L65.2411 15.3245L65.19 14.7929L65.0256 13.0574L64.9723 12.4968L64.7369 10.0242L64.6836 9.47255L64.6481 9.10848C64.6414 9.03254 64.6325 8.9566 64.6214 8.88289C64.6103 8.80695 64.6014 8.73101 64.5881 8.6573C64.5792 8.59923 64.5681 8.54339 64.5548 8.48755C64.5481 8.43618 64.5326 8.38704 64.5237 8.33791C64.5148 8.28877 64.5037 8.23963 64.4904 8.19272C64.4304 7.95597 64.366 7.74378 64.2905 7.54499C64.1794 7.24346 64.0417 6.9531 63.8818 6.67837C63.7974 6.52202 63.7041 6.3679 63.602 6.22272C63.5798 6.19145 63.5553 6.16018 63.5331 6.12668C63.3954 5.93013 63.2466 5.74251 63.08 5.56606C62.5825 5.02107 61.9962 4.57436 61.341 4.23932C60.5015 3.81495 59.5576 3.58936 58.6137 3.58936H35.4C34.4494 3.58936 33.5077 3.81495 32.6704 4.24156C32.0108 4.57436 31.4267 5.0233 30.9403 5.55936C30.7781 5.73581 30.6227 5.92566 30.4783 6.12668C30.4539 6.15348 30.4361 6.18252 30.4139 6.21379C30.3295 6.33663 30.2429 6.47288 30.1607 6.6203C30.1496 6.6404 30.1407 6.65827 30.1296 6.67837C30.0785 6.76771 30.0297 6.85705 29.9852 6.95086C29.8853 7.13848 29.8009 7.33504 29.7254 7.54276C29.6432 7.75941 29.5766 7.97607 29.5233 8.18826C29.5166 8.21283 29.51 8.2441 29.4988 8.2843L29.4855 8.33791C29.4589 8.46075 29.4344 8.58136 29.4167 8.70644C29.3922 8.85162 29.3745 9.00351 29.3611 9.15762L29.3523 9.25366L29.3345 9.47255L29.2856 10.0242L29.1124 12.0389L29.0635 12.5884L28.8237 15.3714L28.7748 15.9208L28.5349 18.7039L28.4861 19.2555L28.2462 22.0408L28.1996 22.588L27.9686 25.2348L27.9641 25.2996L27.9108 25.9093L27.9064 25.9562L27.038 35.9961L27.0113 36.311L26.9625 36.8649L26.5361 41.8011L26.4872 42.3595L26.2407 45.1939L26.194 45.7523L25.9497 48.5911L25.8986 49.1495L25.8786 49.4108L25.872 49.46L25.8054 50.235L25.6565 51.9861L25.6055 52.5468L25.3634 55.3834L25.3256 55.7988L25.3123 55.9418L25.2257 56.9178L24.4506 65.9169L24.3306 67.3106L24.2818 67.8578L24.0419 70.6431L23.993 71.1925L23.7532 73.9778L23.7043 74.525L23.4644 77.3102L23.4156 77.8597L23.1757 80.645L23.1291 81.1922L22.6027 87.2652L22.2407 91.4509C22.2229 91.6609 22.2185 91.8708 22.2229 92.0763C22.2229 92.2215 22.2318 92.3622 22.2407 92.4828C22.2629 92.7888 22.314 93.0993 22.385 93.3941C22.4384 93.6309 22.5028 93.8498 22.5783 94.0441C22.6271 94.1893 22.6849 94.3322 22.7404 94.4528C22.8825 94.7789 23.0536 95.0916 23.249 95.3798C23.3978 95.6053 23.5666 95.8242 23.7465 96.0297C23.8576 96.1548 23.9775 96.2799 24.1019 96.396C24.495 96.778 24.9414 97.1041 25.4211 97.3587C26.023 97.687 26.6715 97.9037 27.36 98.0109C27.671 98.0556 27.9797 98.0801 28.2817 98.0801H66.4426C66.6403 98.0801 66.8379 98.069 67.0112 98.0533C67.12 98.0422 67.2288 98.0288 67.3377 98.0153L67.3754 98.0109C68.055 97.9037 68.708 97.6826 69.2988 97.3609C69.6786 97.1599 70.0428 96.9097 70.3804 96.6194C70.5914 96.4385 70.7935 96.2397 70.9667 96.0409C71.1466 95.8376 71.3177 95.6165 71.4642 95.3954C71.5797 95.2323 71.6863 95.0536 71.7885 94.8616C71.9307 94.598 72.0506 94.3233 72.1461 94.053C72.1594 94.024 72.1705 93.9905 72.1772 93.9592C72.2483 93.7649 72.3016 93.5795 72.3393 93.4075C72.4459 92.9742 72.5014 92.5253 72.5037 92.0785C72.5103 91.8753 72.5014 91.6631 72.4837 91.4286ZM36.5704 54.1884L41.7342 53.6367L48.024 52.9667L48.7925 52.8863L66.7535 50.9699L66.8069 51.5193L48.7969 53.438L48.637 53.4558L48.4882 53.4715L47.8885 53.5362L47.7597 53.5496L47.7353 53.5519L46.9313 53.6367L41.7675 54.1884L36.8547 54.7111H31.6554L36.5704 54.1884Z" fill="white"/>
<path d="M55.2178 4.50509L54.4161 4.55423L54.3539 3.58933L54.3494 3.49329C54.3494 2.00127 53.1035 0.806315 51.5688 0.806315H43.1535C41.621 0.806315 40.3728 2.00127 40.3728 3.47095L40.3639 3.59157L40.3062 4.55646L39.5044 4.50732L39.5621 3.59157L39.571 3.44638C39.5732 1.55679 41.1812 0 43.1535 0H51.5688C53.541 0 55.149 1.55679 55.149 3.46872L55.1579 3.58933L55.2178 4.50509Z" fill="black"/>
<path d="M60.557 101.29C60.1373 101.741 59.5398 101.998 58.9179 101.998H35.8064C35.1845 101.998 34.5871 101.741 34.1673 101.29C33.7542 100.847 33.5455 100.271 33.5832 99.6726L33.6809 98.0801L33.7431 97.113L34.5449 97.1643L34.4894 98.0801L34.385 99.7218C34.3606 100.101 34.4916 100.461 34.7514 100.74C35.0202 101.028 35.4089 101.194 35.8086 101.194H58.9224C59.3222 101.194 59.7108 101.026 59.9796 100.74C60.2394 100.461 60.3705 100.101 60.346 99.7218L60.3371 99.6146L60.2416 98.0823L60.1861 97.1688L60.9879 97.1152L61.0501 98.0823L61.1478 99.6704C61.1789 100.273 60.9723 100.847 60.557 101.29Z" fill="black"/>
<path d="M60.9214 5.08133H33.0925C33.7877 4.7262 34.5717 4.53188 35.4001 4.53188H58.6138C59.4422 4.52965 60.2262 4.72843 60.9214 5.08133Z" fill="black"/>
<path d="M50.6293 49.3259C50.5271 49.5202 50.4272 49.7146 50.325 49.9111L49.3722 50.0139C49.461 49.8195 49.5476 49.6275 49.6387 49.4331V49.4309L50.6293 49.3259Z" fill="black"/>
<path d="M52.4638 45.7656C52.3616 45.9599 52.2639 46.1542 52.1617 46.3508L50.9868 46.4781C51.0779 46.2838 51.1667 46.0894 51.2533 45.8951L52.4638 45.7656Z" fill="black"/>
<path d="M54.2983 42.2076C54.2005 42.4041 54.0984 42.6007 53.9962 42.7928L52.6014 42.9402C52.6903 42.7459 52.7813 42.5538 52.868 42.3572L54.2983 42.2076Z" fill="black"/>
<path d="M65.5542 28.498H28.626L28.6726 27.9485H65.5009L65.5542 28.498Z" fill="black"/>
<path d="M65.5542 25.1521H28.626L28.6726 24.6026H65.5009L65.5542 25.1521Z" fill="black"/>
<path d="M62.8557 10.0242H31.1646L31.2112 9.47253H62.8068L62.8557 10.0242Z" fill="black"/>
<path d="M63.8817 6.67836H30.1295C30.1406 6.66049 30.1517 6.64039 30.1606 6.62252C30.2428 6.47511 30.3294 6.33886 30.4138 6.21378C30.436 6.18475 30.4538 6.15571 30.4782 6.12891H63.5308C63.5553 6.16018 63.5797 6.19368 63.5997 6.22495C63.7041 6.37013 63.7973 6.52201 63.8817 6.67836Z" fill="black"/>
<path d="M65.8718 31.8439H28.3373L28.3861 31.2944H65.8207L65.8585 31.6965L65.8718 31.8439Z" fill="black"/>
<path d="M66.1516 34.7989L66.1894 35.1898H28.0463L28.0951 34.6403H66.1383L66.1516 34.7989Z" fill="black"/>
<path d="M66.1516 38.1447L66.1894 38.5355H28.0463L28.0951 37.9861H66.1383L66.1516 38.1447Z" fill="black"/>
<path d="M68.4193 58.6086H26.0231L26.0586 58.173L26.0697 58.0569H68.366L68.3683 58.0636L68.4193 58.6086Z" fill="black"/>
<path d="M68.4193 55.2627H26.0231L26.0608 54.8272L26.0697 54.7111H68.366L68.3683 54.7155L68.4193 55.2627Z" fill="black"/>
<path d="M68.7369 61.9545H25.7321L25.7787 61.4028H68.6858L68.7369 61.9545Z" fill="black"/>
<path d="M69.0546 65.3004H25.4435L25.4901 64.7487H69.0036L69.0546 65.3004Z" fill="black"/>
<path d="M69.0546 68.6462H25.4435L25.4901 68.0945H69.0036L69.0546 68.6462Z" fill="black"/>
<path d="M71.2843 88.7171H23.4155L23.4644 88.1676H71.231L71.2843 88.7171Z" fill="black"/>
<path d="M71.2843 85.3711H23.4155L23.4644 84.8217H71.231L71.2843 85.3711Z" fill="black"/>
<path d="M71.5688 92.0629H23.1581C23.1537 91.8886 23.1581 91.7144 23.1737 91.5357L23.1759 91.5112H71.5511C71.5666 91.6988 71.5755 91.8819 71.5688 92.0629Z" fill="black"/>
<path d="M70.698 94.8593C70.5692 95.0536 70.4293 95.239 70.2738 95.4088H24.4506C24.2951 95.2346 24.1552 95.0514 24.0264 94.8593H70.698Z" fill="black"/>
<path d="M68.8613 96.5323C68.3616 96.8026 67.813 96.9924 67.2289 97.0818H27.4956C26.9115 96.9902 26.3629 96.8026 25.8632 96.5323H68.8613Z" fill="black"/>
<path d="M66.3204 26.6531V27.9463H64.5636L64.4215 26.4476L52.2461 25.1499L47.0823 24.6005L30.0585 22.7846L29.903 24.6005L29.8542 25.1499L29.6942 26.9971L29.6298 27.7431L29.6121 27.9441H29.4855V8.33344H31.4266C31.4177 8.36247 31.4088 8.39151 31.4 8.42278C31.3733 8.49872 31.3555 8.57243 31.3356 8.64613L31.3267 8.68187C31.3156 8.71761 31.3111 8.73994 31.3045 8.76228C31.2934 8.81142 31.2822 8.85609 31.2778 8.90523L63.0711 12.2935L62.7846 9.2827C62.7624 9.07274 62.7291 8.86726 62.6758 8.64837C62.658 8.57019 62.6358 8.49425 62.6136 8.42278C62.6025 8.39374 62.5959 8.3647 62.5848 8.33344H64.5214L64.9301 12.4879L64.9834 13.0485L65.2633 15.8896L65.3166 16.448L65.5964 19.289L65.6497 19.8474L65.9273 22.6885L65.9829 23.2492L66.2605 26.088L66.3204 26.6531Z" fill="#E2E2E2"/>
<path d="M72.0883 87.2652H70.2071L70.105 86.2021L62.3227 85.3712L57.1589 84.8217L52.2461 84.2991L47.0823 83.7474L24.988 81.3932L24.6926 84.8217L24.6437 85.3712L24.4794 87.2652H22.6027L23.1268 81.1944L23.1757 80.6472L23.4155 77.862L23.4644 77.3103L23.7043 74.5272L23.7531 73.9778L23.993 71.1948L24.0419 70.6431L24.2817 67.8601L24.3284 67.3106L24.4505 65.9169H26.3272L26.1895 67.5094L31.6909 68.0946L36.8547 68.6463L68.7568 72.048L68.4348 68.6463L68.3815 68.0946L68.1749 65.9169H70.0561L70.658 72.249L70.7091 72.8074L70.9823 75.6485L71.0356 76.2069L71.3043 79.0457L71.3576 79.6064L71.6286 82.4452L71.6819 83.0058L71.9506 85.8447L72.0039 86.4031L72.0883 87.2652Z" fill="#E2E2E2"/>
<path d="M69.1989 56.9179H67.3177L67.2955 56.6588L67.2111 55.7988L67.16 55.2628L67.1111 54.7111L66.8069 51.5193L66.7536 50.9699L48.7925 52.8863L48.0241 52.9667L41.7342 53.6368L36.5705 54.1884L31.6554 54.7111H36.8548L31.691 55.2628L27.209 55.7408L27.2024 55.7988L27.1269 56.6588L27.1069 56.9179H25.2257L25.3123 55.9418L25.3257 55.7988L25.3634 55.3834L25.6055 52.5468L25.6566 51.9862L25.8054 50.235L25.872 49.46L25.8787 49.4109L25.8987 49.1495L25.9497 48.5911L26.1941 45.7523L26.2407 45.1939L26.4872 42.3595L26.5361 41.8011L26.9625 36.8649L27.0114 36.311L27.038 35.9961H28.9148L28.8881 36.311L28.8392 36.8649L28.7437 37.984L28.6949 38.5357L28.4306 41.5956L54.2028 38.8506L54.4871 38.8193L54.5115 38.8171L55.8308 38.6764L56.1351 38.6451L56.1506 38.6429L57.1612 38.5357L62.3249 37.984L65.4876 37.6489L65.4121 36.8649L65.3588 36.311L65.3299 35.9961H67.2089L67.2377 36.311L67.291 36.8649L67.3488 37.4501L67.3976 37.9974L67.6642 40.7804L67.7175 41.3276L67.9818 44.1106L68.0306 44.6601L68.2594 47.0321L68.2994 47.4431L68.3482 47.9903L68.6147 50.7711L68.668 51.3206L69.1744 56.6588L69.1989 56.9179Z" fill="#E2E2E2"/>
<path d="M72.4837 91.4286L72.0883 87.2652L72.0039 86.4031L71.9506 85.8447L71.6819 83.0058L71.6286 82.4452L71.3576 79.6063L71.3043 79.0457L71.0356 76.2069L70.9823 75.6485L70.7091 72.8074L70.658 72.249L70.0561 65.9169L69.1988 56.9178L69.1744 56.6588L68.668 51.3205L68.6147 50.7711L68.3482 47.9903L68.2993 47.4431L68.2594 47.0321L68.0306 44.6601L67.9818 44.1106L67.7175 41.3276L67.6642 40.7804L67.3976 37.9974L67.3488 37.4501L67.291 36.8649L67.2377 36.311L67.2088 35.9961L66.3205 26.6531L66.2672 26.0925L65.994 23.2536L65.9407 22.693L65.6986 20.1266L65.6719 19.8541L65.6519 19.6353L65.6186 19.2958L65.3477 16.4547L65.2944 15.8963L65.2411 15.3245L65.19 14.7929L65.0256 13.0574L64.9723 12.4968L64.7369 10.0242L64.6836 9.47255L64.6481 9.10848C64.6414 9.03254 64.6325 8.9566 64.6214 8.88289C64.6103 8.80695 64.6014 8.73101 64.5881 8.6573C64.5792 8.59923 64.5681 8.54339 64.5548 8.48755C64.5481 8.43618 64.5326 8.38704 64.5237 8.33791C64.5148 8.28877 64.5037 8.23963 64.4904 8.19272C64.4304 7.95597 64.366 7.74378 64.2905 7.54499C64.1794 7.24346 64.0417 6.9531 63.8818 6.67837C63.7974 6.52202 63.7041 6.3679 63.602 6.22272C63.5798 6.19145 63.5553 6.16018 63.5331 6.12668C63.3954 5.93013 63.2466 5.74251 63.08 5.56606C62.5825 5.02107 61.9962 4.57436 61.341 4.23932C60.5015 3.81495 59.5576 3.58936 58.6137 3.58936H35.4C34.4494 3.58936 33.5077 3.81495 32.6704 4.24156C32.0108 4.57436 31.4267 5.0233 30.9403 5.55936C30.7781 5.73581 30.6227 5.92566 30.4783 6.12668C30.4539 6.15348 30.4361 6.18252 30.4139 6.21379C30.3295 6.33663 30.2429 6.47288 30.1607 6.6203C30.1496 6.6404 30.1407 6.65827 30.1296 6.67837C30.0785 6.76771 30.0297 6.85705 29.9852 6.95086C29.8853 7.13848 29.8009 7.33504 29.7254 7.54276C29.6432 7.75941 29.5766 7.97607 29.5233 8.18826C29.5166 8.21283 29.51 8.2441 29.4988 8.2843L29.4855 8.33791C29.4589 8.46075 29.4344 8.58136 29.4167 8.70644C29.3922 8.85162 29.3745 9.00351 29.3611 9.15762L29.3523 9.25366L29.3345 9.47255L29.2856 10.0242L29.1124 12.0389L29.0635 12.5884L28.8237 15.3714L28.7748 15.9208L28.5349 18.7039L28.4861 19.2555L28.2462 22.0408L28.1996 22.588L27.9686 25.2348L27.9641 25.2996L27.9108 25.9093L27.9064 25.9562L27.038 35.9961L27.0113 36.311L26.9625 36.8649L26.5361 41.8011L26.4872 42.3595L26.2407 45.1939L26.194 45.7523L25.9497 48.5911L25.8986 49.1495L25.8786 49.4108L25.872 49.46L25.8054 50.235L25.6565 51.9861L25.6055 52.5468L25.3634 55.3834L25.3256 55.7988L25.3123 55.9418L25.2257 56.9178L24.4506 65.9169L24.3306 67.3106L24.2818 67.8578L24.0419 70.6431L23.993 71.1925L23.7532 73.9778L23.7043 74.525L23.4644 77.3102L23.4156 77.8597L23.1757 80.645L23.1291 81.1922L22.6027 87.2652L22.2407 91.4509C22.2229 91.6609 22.2185 91.8708 22.2229 92.0763C22.2229 92.2215 22.2318 92.3622 22.2407 92.4828C22.2629 92.7888 22.314 93.0993 22.385 93.3941C22.4384 93.6309 22.5028 93.8498 22.5783 94.0441C22.6271 94.1893 22.6849 94.3322 22.7404 94.4528C22.8825 94.7789 23.0536 95.0916 23.249 95.3798C23.3978 95.6053 23.5666 95.8242 23.7465 96.0297C23.8576 96.1548 23.9775 96.2799 24.1019 96.396C24.495 96.778 24.9414 97.1041 25.4211 97.3587C26.023 97.687 26.6715 97.9037 27.36 98.0109C27.671 98.0556 27.9797 98.0801 28.2817 98.0801H66.4426C66.6403 98.0801 66.8379 98.069 67.0112 98.0533C67.12 98.0422 67.2288 98.0288 67.3377 98.0153L67.3754 98.0109C68.055 97.9037 68.708 97.6826 69.2988 97.3609C69.6786 97.1599 70.0428 96.9097 70.3804 96.6194C70.5914 96.4385 70.7935 96.2397 70.9667 96.0409C71.1466 95.8376 71.3177 95.6165 71.4642 95.3954C71.5797 95.2323 71.6863 95.0536 71.7885 94.8616C71.9307 94.598 72.0506 94.3233 72.1461 94.053C72.1594 94.024 72.1705 93.9905 72.1772 93.9592C72.2483 93.7649 72.3016 93.5795 72.3393 93.4075C72.4459 92.9742 72.5014 92.5253 72.5037 92.0785C72.5103 91.8753 72.5014 91.6631 72.4837 91.4286ZM68.4193 95.7036C68.004 95.927 67.5598 96.0811 67.0889 96.1526C67.0112 96.1637 66.9379 96.1749 66.8424 96.1816C66.7158 96.195 66.5781 96.2017 66.4426 96.2017H28.2817C28.0708 96.2017 27.8509 96.1861 27.6399 96.1526C27.1713 96.0811 26.7226 95.9292 26.3029 95.7014C26.1407 95.6165 25.983 95.516 25.832 95.4088C25.6788 95.2971 25.5322 95.172 25.3923 95.038C25.3301 94.9799 25.2723 94.9196 25.2168 94.8593C25.1924 94.8348 25.1679 94.8102 25.1457 94.7834C25.0191 94.6382 24.9059 94.4908 24.7993 94.3322C24.666 94.1334 24.5483 93.919 24.4417 93.68C24.4039 93.5974 24.3728 93.5125 24.3351 93.4075C24.284 93.2713 24.2418 93.1283 24.204 92.9608C24.1529 92.7531 24.1196 92.5454 24.1063 92.3265C24.0952 92.2394 24.093 92.1523 24.093 92.0629V92.0339C24.0863 91.8976 24.093 91.7614 24.1019 91.6385L24.113 91.5135L24.3573 88.717L24.4017 88.1676L24.4794 87.2652L24.6438 85.3712L24.6926 84.8217L24.988 81.391L25.0369 80.8437L25.2768 78.0563L25.3256 77.509L25.5655 74.7238L25.6144 74.1766L25.8542 71.3891L25.9031 70.8419L26.0919 68.644L26.1407 68.0946L26.1429 68.0566L26.1896 67.5094L26.3273 65.9169L26.3806 65.2982L26.4272 64.7487L26.6693 61.9523L26.716 61.4028L26.9603 58.6086L27.0069 58.057L27.1069 56.9178L27.1268 56.6588L27.2024 55.7988L27.209 55.7408L27.249 55.2628L27.2557 55.1801L27.2956 54.7111L27.5022 52.3435L27.5155 52.1894L27.5266 52.0576L27.5488 51.7851L27.5755 51.468L27.7954 48.9485L27.8442 48.3901L28.0885 45.5513L28.1374 44.9929L28.3839 42.1585L28.4306 41.5956L28.6948 38.5356L28.7437 37.9839L28.8392 36.8649L28.8881 36.311L28.9147 35.9961L28.9836 35.1898L29.0324 34.6381L29.2745 31.8439L29.3234 31.2922L29.5633 28.498L29.6121 27.9463L29.6299 27.7453L29.6943 26.9993L29.8542 25.1521L29.9031 24.6005L30.0563 22.7868L30.1052 22.2396L30.3473 19.4543L30.3939 18.9026L30.636 16.1196L30.6826 15.5702L30.9247 12.7872L30.9736 12.2355L31.1646 10.0242L31.2112 9.47255L31.2134 9.45245L31.2245 9.32291C31.2334 9.17772 31.2534 9.04148 31.2801 8.90523C31.2845 8.85832 31.2956 8.81142 31.3067 8.76452C31.3112 8.74218 31.3178 8.71761 31.3289 8.68411L31.3356 8.64837C31.3556 8.5769 31.3734 8.50096 31.4 8.42501C31.4089 8.39598 31.4178 8.36694 31.4267 8.33791C31.4422 8.291 31.4555 8.24633 31.4755 8.19942C31.5177 8.08551 31.5621 7.97607 31.6154 7.87556C31.6243 7.85322 31.6376 7.82865 31.6488 7.80855L31.6665 7.77058C31.7021 7.69687 31.742 7.6254 31.7842 7.55393C31.8353 7.46458 31.8886 7.37524 31.9464 7.29036C32.0596 7.12508 32.1796 6.97767 32.3128 6.83695C32.3617 6.78111 32.4128 6.72751 32.4639 6.67837C32.6704 6.47065 32.9014 6.28526 33.1524 6.12668C33.2656 6.05074 33.39 5.9815 33.5144 5.91673C34.0985 5.61966 34.7315 5.47001 35.4 5.47001H58.6137C59.2755 5.47001 59.9107 5.61966 60.4993 5.91673C60.6236 5.9815 60.7458 6.05074 60.8613 6.12668C61.11 6.28526 61.3432 6.47065 61.5542 6.67837C61.6075 6.73197 61.6586 6.78558 61.7097 6.83919C61.8363 6.97767 61.954 7.12955 62.0628 7.29036C62.1917 7.47575 62.3049 7.67007 62.4004 7.87556C62.4515 7.98277 62.4982 8.09445 62.5426 8.20836C62.5581 8.2508 62.5737 8.29323 62.587 8.33791C62.5981 8.36694 62.6048 8.39598 62.6159 8.42501C62.6381 8.49872 62.6603 8.57243 62.6781 8.6506C62.7314 8.86949 62.7669 9.07498 62.7869 9.28493L62.8069 9.47255L62.8579 10.0242L63.0734 12.2958L63.1267 12.8542L63.3954 15.6953L63.4487 16.2536L63.6353 18.2013L63.6842 18.7307L63.7197 19.0925L63.773 19.6531L64.044 22.492L64.0639 22.7109L64.095 23.0504L64.1106 23.2067L64.2438 24.6005L64.2971 25.1521L64.3682 25.8915L64.4215 26.4498L64.5637 27.9463L64.617 28.498L64.8813 31.2922L64.9346 31.8439L65.1989 34.6381L65.2522 35.1898L65.3299 35.9961L65.3588 36.311L65.4121 36.8649L65.4876 37.6489L65.5187 37.9839L65.5387 38.1961L65.5698 38.5356L65.803 40.9792L65.8563 41.5264L66.1206 44.3094L66.1739 44.8566L66.4382 47.6419L66.4893 48.1891L66.7535 50.9699L66.8069 51.5193L67.1111 54.7111L67.16 55.2628L67.2111 55.7988L67.2955 56.6588L67.3177 56.9178L67.4287 58.057L67.4798 58.6086L67.7463 61.4028L67.7996 61.9523L68.0639 64.7487L68.1172 65.2982L68.175 65.9169L68.3815 68.0946L68.4348 68.644L68.7569 72.048L68.8102 72.6064L69.0811 75.443L69.1344 76.0059L69.4032 78.8447L69.4565 79.4031L69.7297 82.2442L69.7807 82.8026L69.9762 84.8217L70.0273 85.3712L70.0539 85.6392L70.1072 86.2021L70.2072 87.2652L70.2938 88.1676L70.3449 88.717L70.6114 91.5135L70.6136 91.5447L70.6158 91.7346L70.6314 91.7659C70.638 91.8619 70.638 91.9512 70.6358 92.0361V92.0584C70.6358 92.0607 70.6358 92.0607 70.6358 92.0629C70.6314 92.3622 70.5958 92.6682 70.5203 92.9787C70.4915 93.0993 70.4559 93.2221 70.4071 93.3584L70.3893 93.4164C70.3893 93.4164 70.3893 93.4187 70.3871 93.4187C70.3227 93.6018 70.2427 93.785 70.1405 93.9748C70.0695 94.1066 70.0028 94.2228 69.9229 94.3367C69.8163 94.4953 69.7008 94.6471 69.572 94.7879C69.5498 94.8124 69.532 94.8348 69.5076 94.8593C69.4032 94.9777 69.2921 95.0849 69.1655 95.1877C69.0745 95.2658 68.9856 95.3418 68.8879 95.4088C68.7391 95.5182 68.5814 95.6187 68.4193 95.7036Z" fill="black"/>
<path d="M66.3205 26.6531L64.4216 26.4498L52.2462 25.1521L47.0824 24.6027L30.0563 22.7868L29.4856 22.7242L28.1974 22.588L28.2462 22.0408L29.4856 22.1726L30.1052 22.2396L52.2795 24.6027L57.4433 25.1521L64.3683 25.8914L66.2628 26.0925H66.2672L66.3205 26.6531Z" fill="black"/>
<path d="M65.9939 23.2535L64.0949 23.0503L30.3471 19.4542L28.486 19.2554L28.5348 18.706L30.3938 18.9048L64.0438 22.4919L65.9405 22.6929L65.9939 23.2535Z" fill="black"/>
<path d="M65.6719 19.8541L63.773 19.653L30.636 16.1195L28.7748 15.9208L28.8236 15.3735L30.6826 15.5723L63.7197 19.0924L65.6186 19.2957L65.6719 19.8541Z" fill="black"/>
<path d="M65.3478 16.4546L63.4488 16.2536L30.9248 12.7871L29.0636 12.5884L29.1125 12.0411L30.9736 12.2377L63.3955 15.6952L65.2945 15.8963L65.3478 16.4546Z" fill="black"/>
<path d="M65.0258 13.0574L64.9858 13.0529L63.1268 12.8541L31.2136 9.45239L29.4857 9.26701L29.3524 9.25361L29.3613 9.1598C29.3746 9.00345 29.3924 8.8538 29.4168 8.70862L29.4857 8.71755L31.2802 8.9074L63.0735 12.2957L64.9325 12.4923L64.9725 12.4967L65.0258 13.0574Z" fill="black"/>
<path d="M66.8068 51.5194L48.7969 53.438L48.637 53.4559L48.4882 53.4715L47.8885 53.5363L47.7597 53.5497L47.7353 53.5519L46.9313 53.6368L41.7675 54.1885L36.8547 54.7111H31.6554L36.5704 54.1885L41.7342 53.6368L48.024 52.9667L48.7925 52.8863L66.7535 50.9699L66.8068 51.5194Z" fill="black"/>
<path d="M31.6555 54.7111H36.8548L31.691 55.2628L27.2091 55.7408L26.6516 55.7989L25.3124 55.9418L25.3257 55.7989L25.3635 55.3834L26.4917 55.2628L27.2557 55.1802L31.6555 54.7111Z" fill="black"/>
<path d="M68.6681 51.3206L68.2595 51.363L66.807 51.5194L66.7537 50.9699L68.2595 50.8091L68.6148 50.7711L68.6681 51.3206Z" fill="black"/>
<path d="M68.3485 47.9903L68.2596 47.9992L66.4873 48.1891L50.3252 49.9111L49.3724 50.0139L27.5024 52.3435L25.6057 52.5467L25.6568 51.9861L27.5491 51.7851L49.6389 49.4332V49.4309L50.6295 49.3259L66.4384 47.6418L68.2596 47.4453L68.2996 47.4431L68.3485 47.9903Z" fill="black"/>
<path d="M68.0305 44.6602L66.1738 44.8567L52.1616 46.351L50.9868 46.4761L27.7953 48.9486L25.8986 49.1519L25.9496 48.5935L27.8441 48.3902L51.2555 45.8931L52.4637 45.7658L66.1205 44.3095L67.9795 44.1107L68.0305 44.6602Z" fill="black"/>
<path d="M67.7153 41.3298L65.8563 41.5264L53.9963 42.7928L52.6038 42.9402L28.0886 45.5535L26.1941 45.7545L26.2407 45.1961L28.1374 44.9951L52.8703 42.3573L54.2984 42.2076L65.8008 40.9792L67.662 40.7804L67.7153 41.3298Z" fill="black"/>
<path d="M67.3977 37.9995L66.4672 38.0978L65.5366 38.1983L62.3583 38.5356L55.8353 39.2325L54.2185 39.4044L28.3818 42.1584L26.4873 42.3594L26.5339 41.8011L28.4307 41.5978L54.485 38.8215L56.1352 38.645L57.1612 38.5356L62.325 37.9861L65.4877 37.6489L67.3489 37.4501L67.3977 37.9995Z" fill="black"/>
<path d="M72.0041 86.4031L70.1051 86.2021L62.3228 85.3712L57.159 84.8217L52.2462 84.2991L47.0824 83.7474L24.9881 81.3932L23.127 81.1944L23.1758 80.6472L25.037 80.846L52.2795 83.7474L57.4433 84.2991L62.3583 84.8217L67.5221 85.3712L70.0518 85.6415L71.9507 85.8447L72.0041 86.4031Z" fill="black"/>
<path d="M71.6819 83.0058L69.7807 82.8026L25.2767 78.0585L23.4155 77.8619L23.4644 77.3102L25.3256 77.509L69.7296 82.2442L71.6286 82.4452L71.6819 83.0058Z" fill="black"/>
<path d="M71.3578 79.6063L69.4566 79.403L25.5656 74.726L23.7045 74.5272L23.7533 73.9777L25.6145 74.1765L69.4033 78.8447L71.3045 79.0457L71.3578 79.6063Z" fill="black"/>
<path d="M71.0356 76.2069L69.1344 76.0059L25.8542 71.3891L23.993 71.1948L24.0419 70.6431L25.9031 70.8419L69.0811 75.4452L70.9823 75.6485L71.0356 76.2069Z" fill="black"/>
<path d="M70.7092 72.8074L68.8103 72.6064L31.66 68.6463L26.494 68.0946L26.143 68.0566L24.2819 67.8601L24.3285 67.3106L26.1897 67.5094L31.691 68.0946L36.8548 68.6463L68.757 72.048L70.6581 72.249L70.7092 72.8074Z" fill="black"/>
<path d="M28.4905 25.9071C28.4706 26.126 28.2129 26.2309 28.0508 26.0835C26.1963 24.4128 23.6932 22.7801 20.6305 22.215C20.2107 22.1368 19.7843 22.0787 19.3446 22.043C15.3623 21.7258 11.0914 23.3541 7.62 26.5057C3.9998 29.7912 1.49009 34.4705 0.52841 39.7015C0.501758 39.8445 0.366279 39.9405 0.224136 39.916H0.221915C0.0753303 39.8914 -0.0223928 39.7484 0.00425898 39.6033C0.985932 34.2583 3.55561 29.4741 7.26242 26.1058C10.8404 22.8538 15.2579 21.1786 19.3867 21.5092C19.811 21.5449 20.2263 21.5985 20.6305 21.67C23.8509 22.2373 26.4717 23.9415 28.4039 25.6837C28.4661 25.7395 28.4994 25.8222 28.4905 25.9071Z" fill="black"/>
<path d="M48.6371 53.4558C48.5883 53.5496 48.5372 53.6434 48.4883 53.7395L47.9886 54.7111C47.8931 54.8942 47.7998 55.0774 47.7043 55.2627C47.2246 56.1941 46.7448 57.1255 46.2651 58.0569C46.1696 58.2401 46.0741 58.4255 45.9808 58.6086C45.5011 59.54 45.0214 60.4714 44.5394 61.4028C44.4461 61.586 44.3506 61.7691 44.2551 61.9523C43.7776 62.8836 43.2979 63.815 42.8159 64.7487C42.7226 64.9318 42.6294 65.115 42.5339 65.2981C42.4739 65.4143 42.4139 65.5327 42.354 65.6488C42.4073 65.5327 42.4606 65.4143 42.5139 65.2981C42.5983 65.115 42.6827 64.9318 42.7648 64.7487C43.1913 63.815 43.6177 62.8836 44.0419 61.9523C44.1263 61.7691 44.2107 61.586 44.2929 61.4028C44.7193 60.4692 45.1457 59.5378 45.5699 58.6086C45.6543 58.4232 45.7387 58.2401 45.8209 58.0569C46.2473 57.1233 46.6738 56.1941 47.098 55.2627C47.1824 55.0796 47.2668 54.8942 47.3512 54.7111C47.4867 54.414 47.6244 54.1147 47.7598 53.8176C47.802 53.7238 47.8442 53.63 47.8886 53.5362L47.7598 53.5496L47.7354 53.5518C47.7021 53.6211 47.671 53.6903 47.6399 53.7618C47.4955 54.079 47.3512 54.3939 47.2046 54.7111C47.1224 54.8942 47.038 55.0774 46.9536 55.2627C46.5272 56.1919 46.1008 57.1233 45.6743 58.0569C45.5899 58.2401 45.5078 58.4232 45.4234 58.6086C45.0103 59.511 44.5972 60.4133 44.1841 61.3179L44.1463 61.4028L43.8953 61.9523L42.6183 64.7487L42.3673 65.2981L42.2318 65.593L42.4717 65.7091C42.5427 65.5729 42.6138 65.4344 42.6827 65.2981C42.7782 65.115 42.8715 64.9318 42.967 64.7487C43.4467 63.815 43.9286 62.8836 44.4084 61.9523C44.5017 61.7691 44.5972 61.586 44.6904 61.4028C45.0836 60.6412 45.4744 59.8817 45.8653 59.1223L46.1296 58.6086L46.4139 58.0569L47.8553 55.2627L48.1396 54.7111L48.797 53.4379L48.6371 53.4558Z" fill="black"/>
<path d="M48.6359 53.4556C48.5871 53.5494 48.536 53.6432 48.4871 53.7393L47.9874 54.7109C47.8919 54.894 47.7986 55.0772 47.7031 55.2626C47.2234 56.194 46.7437 57.1254 46.2639 58.0568C46.1684 58.2399 46.0729 58.4253 45.9796 58.6084C45.4999 59.5398 45.0202 60.4712 44.5382 61.4026C44.4449 61.5858 44.3494 61.7689 44.2539 61.9521C43.7764 62.8835 43.2967 63.8149 42.8147 64.7485C42.7215 64.9317 42.6282 65.1148 42.5327 65.298C42.4727 65.4141 42.4127 65.5325 42.3528 65.6486C42.4061 65.5325 42.4594 65.4141 42.5127 65.298C42.5971 65.1148 42.6815 64.9317 42.7637 64.7485C43.1901 63.8149 43.6165 62.8835 44.0407 61.9521C44.1251 61.7689 44.2095 61.5858 44.2917 61.4026C44.7181 60.469 45.1446 59.5376 45.5688 58.6084C45.6532 58.4231 45.7376 58.2399 45.8197 58.0568C46.2462 57.1231 46.6726 56.194 47.0968 55.2626C47.1812 55.0794 47.2656 54.894 47.35 54.7109C47.4855 54.4138 47.6232 54.1145 47.7586 53.8175C47.8008 53.7237 47.843 53.6298 47.8875 53.536L48.4871 53.4713L48.6359 53.4556Z" fill="#C9C9C9"/>
<path d="M71.7731 6.89949C71.6576 6.54882 71.3999 6.26739 71.0313 6.08647C70.7958 5.97256 70.5693 5.91449 70.3494 5.91449C70.2073 5.91449 70.0696 5.93683 69.9341 5.98596C69.5876 6.10658 69.3344 6.37237 69.2367 6.58232C64.315 17.3481 59.4644 27.9709 54.6071 38.6071L54.5405 38.7523C54.5072 38.826 54.4739 38.9019 54.4406 38.9757L55.7487 38.8372C55.7976 38.7434 55.8464 38.6473 55.8953 38.5535L56.0174 38.3145L60.8459 28.9537C64.4638 21.9403 68.0885 14.909 71.7442 7.81302C71.8441 7.61646 71.893 7.25686 71.7731 6.89949ZM70.7337 7.68124L69.1812 10.9824C69.1146 11.1209 68.9769 11.2013 68.8347 11.2013C68.7792 11.2013 68.7237 11.1902 68.6704 11.1656C68.4816 11.074 68.4016 10.844 68.4905 10.6541L70.0451 7.3529C70.134 7.16975 70.365 7.08264 70.5515 7.16975C70.6448 7.21442 70.7137 7.2926 70.7492 7.38864C70.7825 7.48468 70.7781 7.58743 70.7337 7.68124Z" fill="#C9C9C9"/>
<path d="M72.0263 6.81236C71.9285 6.51976 71.6976 6.11549 71.1467 5.84523C70.7048 5.62634 70.2539 5.58837 69.8475 5.73132C69.3988 5.8899 69.1079 6.22717 68.9946 6.46839C64.0729 17.2364 59.2223 27.8592 54.365 38.4954L54.2984 38.6406C54.2318 38.7858 54.1674 38.9332 54.0985 39.0761L53.9963 39.2928L55.9197 39.0873L55.953 39.0248L56.1329 38.6763L61.0835 29.0765C64.6992 22.0631 68.3261 15.0319 71.9818 7.93584C72.0996 7.70578 72.1795 7.27471 72.0263 6.81236ZM71.7442 7.81299C68.0885 14.909 64.4638 21.9403 60.8458 28.9536L56.0174 38.3145L55.8953 38.5535C55.8464 38.6473 55.7976 38.7433 55.7487 38.8371L54.4405 38.9756C54.4738 38.9019 54.5072 38.826 54.5405 38.7523L54.6071 38.6071C59.4644 27.9709 64.315 17.3481 69.2367 6.5823C69.3344 6.37235 69.5876 6.10655 69.9341 5.98594C70.0696 5.9368 70.2073 5.91447 70.3494 5.91447C70.5693 5.91447 70.7958 5.97254 71.0313 6.08645C71.3999 6.26737 71.6576 6.5488 71.7731 6.89947C71.893 7.25684 71.8441 7.61644 71.7442 7.81299Z" fill="black"/>
<path d="M70.7492 7.38864C70.7137 7.29259 70.6448 7.21442 70.5515 7.16975C70.365 7.08264 70.134 7.16975 70.0452 7.3529L68.4905 10.6541C68.4016 10.844 68.4816 11.074 68.6704 11.1656C68.7237 11.1902 68.7792 11.2013 68.8347 11.2013C68.9769 11.2013 69.1146 11.1209 69.1812 10.9824L70.7337 7.68123C70.7781 7.58742 70.7825 7.48468 70.7492 7.38864ZM70.4938 7.56509L68.9391 10.8685C68.9125 10.9244 68.8414 10.9489 68.7859 10.9221C68.7281 10.8953 68.7037 10.8261 68.7326 10.768L70.285 7.46904C70.305 7.42884 70.345 7.40204 70.3894 7.40204C70.405 7.40204 70.4249 7.4065 70.4383 7.4132C70.4671 7.42661 70.4871 7.44894 70.4982 7.47798C70.5071 7.50701 70.5071 7.53828 70.4938 7.56509Z" fill="black"/>
<path d="M116.792 37.9683C116.432 36.7913 116.004 35.7862 115.515 34.953C115.027 34.1177 114.314 33.3471 113.379 32.6413C112.441 31.9355 111.622 31.3682 110.92 30.9416C110.218 30.515 109.23 30.0749 107.953 29.626C106.676 29.1771 105.696 28.8554 105.017 28.6656C104.335 28.4712 103.315 28.2032 101.956 27.8637C100.719 27.5667 99.7929 27.3411 99.1754 27.1892C98.558 27.0395 97.8051 26.8028 96.9122 26.4834C96.0194 26.164 95.3576 25.8423 94.9334 25.5185C94.5069 25.1991 94.136 24.7926 93.8162 24.299C93.4964 23.8076 93.3365 23.2402 93.3365 22.5992C93.3365 21.23 93.965 20.1825 95.2221 19.4544C96.4769 18.7262 97.9539 18.3644 99.6574 18.3644C101.572 18.3644 103.178 18.8446 104.475 19.8073C105.772 20.7722 106.42 22.1726 106.42 24.0131H115.993C115.993 19.5214 114.578 15.9901 111.751 13.4215C108.921 10.8552 104.977 9.57086 99.915 9.57086C94.8934 9.57086 90.9356 10.7502 88.0439 13.1021C85.1522 15.4541 83.7041 18.7709 83.7041 23.0482C83.7041 24.0756 83.8107 25.0494 84.0217 25.9697C84.2349 26.8877 84.4881 27.7007 84.7879 28.4087C85.0833 29.1145 85.5231 29.789 86.0961 30.4301C86.6691 31.0711 87.191 31.6072 87.6574 32.0338C88.1238 32.4626 88.7879 32.8915 89.6385 33.3181C90.487 33.7469 91.1799 34.0775 91.7107 34.312C92.2415 34.5488 93.01 34.8168 94.0094 35.1139C95.0089 35.4154 95.764 35.6298 96.277 35.7549C96.7834 35.8844 97.5497 36.0765 98.5713 36.3356C99.8506 36.6327 100.806 36.8694 101.445 37.0414C102.083 37.2112 102.86 37.468 103.773 37.8098C104.688 38.1537 105.37 38.4843 105.816 38.8059C106.263 39.1253 106.653 39.5519 107 40.0902C107.335 40.6241 107.506 41.2338 107.506 41.9195C107.506 43.5433 106.793 44.8276 105.37 45.7702C103.944 46.7105 102.254 47.1795 100.297 47.1795C99.3176 47.1795 98.3825 47.0522 97.4875 46.7954C96.5946 46.5407 95.7973 46.1543 95.0955 45.6406C94.3937 45.1269 93.8406 44.4546 93.4364 43.6193C93.03 42.7839 92.8301 41.8346 92.8301 40.7625H83.0645C83.0645 45.5557 84.648 49.3305 87.8173 52.0911C90.9889 54.8496 95.1688 56.2299 100.359 56.2299C103.551 56.2299 106.391 55.7162 108.879 54.691C111.366 53.6658 113.396 52.0375 114.971 49.8129C116.543 47.5905 117.332 44.9147 117.332 41.7922C117.334 40.4163 117.154 39.1432 116.792 37.9683Z" fill="black"/>
<path d="M151.604 10.4039L140.628 42.1696L129.332 10.4039H118.676L136.159 55.3275H145.285L162.131 10.4039H151.604Z" fill="black"/>
<path d="M197.711 37.9683C197.347 36.7913 196.923 35.7862 196.434 34.953C195.943 34.1177 195.233 33.3471 194.298 32.6413C193.36 31.9355 192.541 31.3682 191.839 30.9416C191.137 30.515 190.149 30.0749 188.87 29.626C187.597 29.1771 186.615 28.8554 185.936 28.6656C185.254 28.4712 184.235 28.2032 182.873 27.8637C181.636 27.5667 180.712 27.3411 180.097 27.1892C179.482 27.0373 178.726 26.8028 177.834 26.4834C176.941 26.164 176.279 25.8423 175.855 25.5185C175.428 25.1991 175.057 24.7926 174.738 24.299C174.418 23.8076 174.258 23.2402 174.258 22.5992C174.258 21.23 174.886 20.1825 176.143 19.4544C177.398 18.7262 178.875 18.3644 180.579 18.3644C182.491 18.3644 184.099 18.8446 185.396 19.8073C186.693 20.7722 187.342 22.1726 187.342 24.0131H196.914C196.914 19.5214 195.499 15.9901 192.672 13.4215C189.842 10.8552 185.898 9.57086 180.836 9.57086C175.815 9.57086 171.857 10.7502 168.965 13.1021C166.071 15.4541 164.625 18.7709 164.625 23.0482C164.625 24.0756 164.732 25.0494 164.943 25.9697C165.156 26.8877 165.41 27.7007 165.709 28.4087C166.005 29.1145 166.444 29.789 167.017 30.4301C167.591 31.0711 168.112 31.6072 168.579 32.0338C169.045 32.4626 169.709 32.8915 170.56 33.3181C171.408 33.7469 172.101 34.0775 172.632 34.312C173.163 34.5488 173.929 34.8168 174.931 35.1139C175.93 35.4154 176.685 35.6298 177.194 35.7549C177.705 35.8844 178.471 36.0765 179.49 36.3356C180.77 36.6327 181.725 36.8694 182.364 37.0414C183.002 37.2112 183.779 37.468 184.692 37.8098C185.605 38.1537 186.289 38.4843 186.735 38.8059C187.182 39.1253 187.575 39.5519 187.919 40.0902C188.254 40.6241 188.425 41.2338 188.425 41.9195C188.425 43.5433 187.713 44.8276 186.289 45.7702C184.863 46.7105 183.173 47.1795 181.216 47.1795C180.237 47.1795 179.299 47.0522 178.407 46.7954C177.512 46.5407 176.716 46.1543 176.015 45.6406C175.313 45.1269 174.76 44.4546 174.356 43.6193C173.949 42.7839 173.749 41.8346 173.749 40.7625H163.984C163.984 45.5557 165.567 49.3305 168.737 52.0911C171.906 54.8496 176.088 56.2299 181.278 56.2299C184.47 56.2299 187.308 55.7162 189.796 54.691C192.283 53.6658 194.316 52.0375 195.892 49.8129C197.465 47.5905 198.253 44.9147 198.253 41.7922C198.253 40.4163 198.071 39.1432 197.711 37.9683Z" fill="black"/>
<path d="M95.6086 74.0091C95.1733 73.2653 94.567 72.6913 93.7874 72.2803C94.416 71.8381 94.9068 71.273 95.2644 70.5918C95.6197 69.9061 95.7974 69.1824 95.7974 68.414C95.7974 67.1007 95.2866 66.0018 94.2694 65.124C93.25 64.2462 91.9773 63.8062 90.4515 63.8062H83.0668V81.7305H90.6558C92.1994 81.7305 93.5187 81.2258 94.6159 80.2184C95.7108 79.2111 96.2572 77.9916 96.2572 76.5576C96.2572 75.5994 96.0417 74.7507 95.6086 74.0091ZM86.8602 67.1074H90.0673C90.3738 67.1074 90.6492 67.1521 90.8979 67.2481C91.14 67.3442 91.351 67.4759 91.5198 67.6457C91.6886 67.8177 91.8219 68.0187 91.9151 68.2465C92.0084 68.4766 92.0573 68.7379 92.0573 69.0283C92.0573 69.5911 91.8774 70.049 91.5198 70.3974C91.1645 70.7481 90.6781 70.9246 90.0673 70.9246H86.8602V67.1074V67.1074ZM91.8019 77.6052C91.4088 77.9804 90.9024 78.168 90.2738 78.168H86.8624V74.1476H90.2738C90.9024 74.1476 91.4088 74.3352 91.8019 74.7105C92.1928 75.0857 92.386 75.5637 92.386 76.1444C92.386 76.743 92.1905 77.2322 91.8019 77.6052Z" fill="black"/>
<path d="M102.718 64.3736C102.365 64.0229 101.883 63.804 101.348 63.804C100.279 63.804 99.4109 64.6751 99.4109 65.7517V79.7829C99.4109 80.319 99.6263 80.8059 99.9772 81.1588C100.33 81.5139 100.812 81.7306 101.348 81.7306C102.416 81.7306 103.284 80.8573 103.284 79.7829V65.7517C103.284 65.2112 103.069 64.7265 102.718 64.3736Z" fill="black"/>
<path d="M118.662 63.804V74.7373L110.845 63.804H107.358V81.7283H111.151V70.5382L119.222 81.7283H122.431V63.804H118.662Z" fill="black"/>
<path d="M143.206 67.9918C142.391 66.5668 141.256 65.4478 139.808 64.637C138.356 63.8262 136.741 63.4197 134.96 63.4197C133.843 63.4197 132.806 63.5694 131.844 63.8732C130.46 64.2998 129.239 65.0435 128.173 66.0933C126.365 67.8779 125.461 70.1003 125.461 72.7627C125.461 75.4274 126.367 77.6498 128.173 79.4321C129.98 81.2167 132.241 82.1102 134.96 82.1102C137.672 82.1102 139.933 81.2212 141.732 79.4455C143.528 77.6699 144.43 75.4408 144.43 72.7627C144.43 71.0094 144.022 69.4168 143.206 67.9918ZM139.806 75.6842C139.322 76.5575 138.656 77.2343 137.807 77.719C136.959 78.2081 136.008 78.4494 134.958 78.4494C133.376 78.4494 132.05 77.9066 130.971 76.8256C129.892 75.7401 129.352 74.3865 129.352 72.765C129.352 71.1434 129.892 69.7921 130.971 68.7066C131.509 68.1661 132.108 67.7618 132.77 67.4893C133.441 67.219 134.171 67.0805 134.967 67.0805C136.555 67.0805 137.881 67.6211 138.94 68.7043C139.999 69.7899 140.532 71.1389 140.532 72.7627C140.532 73.8415 140.29 74.8154 139.806 75.6842Z" fill="black"/>
<path d="M155.579 72.3809L161.665 63.804H157.159L151.331 72.0749V63.804H147.46V81.7283H151.331V72.9728L157.618 81.7283H162.329L155.579 72.3809Z" fill="black"/>
<path d="M179.87 67.9918C179.055 66.5668 177.925 65.4478 176.474 64.637C175.022 63.8262 173.403 63.4197 171.624 63.4197C168.907 63.4197 166.644 64.3109 164.839 66.0933C163.029 67.8779 162.127 70.1003 162.127 72.7627C162.127 75.4274 163.029 77.6498 164.839 79.4321C166.644 81.2167 168.907 82.1102 171.624 82.1102C174.336 82.1102 176.597 81.2212 178.396 79.4455C180.192 77.6699 181.094 75.4408 181.094 72.7627C181.092 71.0094 180.683 69.4168 179.87 67.9918ZM176.472 75.6842C175.986 76.5575 175.319 77.2343 174.473 77.719C173.625 78.2081 172.672 78.4494 171.622 78.4494C170.042 78.4494 168.714 77.9066 167.637 76.8256C166.555 75.7401 166.018 74.3865 166.018 72.765C166.018 71.1434 166.555 69.7921 167.637 68.7066C168.712 67.6211 170.045 67.0828 171.635 67.0828C173.221 67.0828 174.544 67.6233 175.606 68.7066C176.665 69.7921 177.198 71.1412 177.198 72.765C177.196 73.8415 176.954 74.8154 176.472 75.6842Z" fill="black"/>
<path d="M194.307 74.9427C195.308 74.4648 196.095 73.7634 196.674 72.8432C197.247 71.9185 197.541 70.8888 197.541 69.7453C197.541 68.6017 197.274 67.5787 196.739 66.6741C196.201 65.7695 195.459 65.0659 194.509 64.5612C193.558 64.0586 192.499 63.8062 191.326 63.8062H184.121V81.7305H187.99V75.6106H190.46L193.923 81.7305H198.251L194.307 74.9427ZM192.945 71.3825C192.474 71.8091 191.853 72.0235 191.073 72.0235H187.993V67.3888H191.073C191.597 67.3888 192.059 67.4849 192.446 67.6814C192.839 67.8802 193.134 68.1505 193.338 68.5012C193.545 68.8518 193.645 69.2583 193.645 69.7207C193.645 70.4019 193.409 70.9581 192.945 71.3825Z" fill="black"/>
<path d="M87.0621 86.356V86.9948H85.4074V90.8298H84.7234V86.9948H83.0687V86.356H87.0621Z" fill="black"/>
<path d="M91.9217 88.6121C91.9217 88.6724 91.915 88.7595 91.9061 88.869H88.1083C88.1638 89.2822 88.3326 89.615 88.6191 89.8674C88.9034 90.1198 89.2565 90.2448 89.6741 90.2448C89.9806 90.2448 90.2537 90.1778 90.4936 90.0416C90.7313 89.9076 90.9223 89.7155 91.0666 89.4653H91.7995C91.613 89.9299 91.3331 90.2895 90.96 90.5464C90.5869 90.8032 90.1582 90.9328 89.6763 90.9328C89.0344 90.9328 88.4947 90.7094 88.0616 90.2627C87.6285 89.816 87.4109 89.2598 87.4109 88.5942C87.4109 87.9286 87.6285 87.3747 88.0616 86.9302C88.4947 86.4858 89.0344 86.2624 89.6763 86.2624C90.3404 86.2624 90.8823 86.488 91.2998 86.9414C91.7129 87.3926 91.9217 87.9487 91.9217 88.6121ZM89.6741 86.9302C89.4098 86.9302 89.1699 86.9838 88.9545 87.0866C88.7368 87.1916 88.5569 87.3412 88.4148 87.5378C88.2726 87.7343 88.1749 87.9599 88.126 88.2123H91.2154C91.1666 87.9532 91.0688 87.7254 90.9267 87.5288C90.7846 87.3323 90.6047 87.1826 90.3914 87.0821C90.176 86.9816 89.9361 86.9302 89.6741 86.9302Z" fill="black"/>
<path d="M95.8261 90.8322L94.3025 88.8287H93.6673V90.8322H92.9677V86.3583H93.6673V88.172H94.3091L95.6839 86.3583H96.5323L94.9088 88.5048L96.6967 90.8322H95.8261Z" fill="black"/>
<path d="M99.2509 90.9328C98.8178 90.9328 98.4225 90.8323 98.0694 90.6312C97.7162 90.4302 97.4386 90.1488 97.2365 89.7914C97.0366 89.4318 96.9366 89.0342 96.9366 88.5987C96.9366 87.9309 97.1565 87.3747 97.6007 86.9302C98.0427 86.4858 98.5935 86.2624 99.2531 86.2624C99.7795 86.2624 100.237 86.4076 100.623 86.7024C101.01 86.995 101.272 87.3836 101.41 87.8706H100.717C100.586 87.5847 100.388 87.3568 100.128 87.1916C99.8683 87.0263 99.5752 86.9436 99.2509 86.9436C98.7956 86.9436 98.4158 87.1022 98.1093 87.4194C97.8051 87.7365 97.6518 88.1296 97.6518 88.6009C97.6518 88.9092 97.7207 89.1906 97.8584 89.4407C97.9961 89.6931 98.1871 89.8897 98.4314 90.0371C98.6757 90.1823 98.9489 90.256 99.2509 90.256C99.5752 90.256 99.8639 90.1711 100.119 90.0036C100.375 89.8361 100.57 89.6016 100.708 89.3045H101.416C101.279 89.8003 101.014 90.1979 100.621 90.4928C100.23 90.7831 99.7729 90.9328 99.2509 90.9328Z" fill="black"/>
<path d="M105.783 86.3583V86.9971H104.128V90.8322H103.444V86.9971H101.789V86.3583H105.783Z" fill="black"/>
<path d="M109.903 86.3583H110.289V90.8322H109.629V87.6359L107.035 90.8322H106.631V86.3583H107.297V89.53L109.903 86.3583Z" fill="black"/>
<path d="M112.463 86.3583H115.38V90.8322H114.68V86.9726H113.048L112.817 89.2329C112.757 89.8248 112.606 90.2425 112.364 90.4882C112.121 90.7339 111.759 90.8567 111.275 90.8567H111.151V90.1934H111.306C111.56 90.1934 111.751 90.1196 111.884 89.9745C112.015 89.8293 112.097 89.5948 112.13 89.2754L112.463 86.3583Z" fill="black"/>
<path d="M118.574 87.7677C119.04 87.7677 119.422 87.9107 119.717 88.1943C120.015 88.478 120.162 88.851 120.162 89.3089C120.162 89.7556 120.013 90.1219 119.717 90.4055C119.42 90.6892 119.04 90.8322 118.574 90.8322H116.786V86.3583H117.47V87.7677H118.574V87.7677ZM118.485 90.2023C118.776 90.2023 119.009 90.1196 119.184 89.9544C119.36 89.7891 119.449 89.5724 119.449 89.3044C119.449 89.0364 119.362 88.8175 119.184 88.65C119.009 88.4824 118.776 88.3976 118.485 88.3976H117.472V90.2023H118.485V90.2023Z" fill="black"/>
<path d="M124.184 86.3583H124.868V90.8322H124.184V88.8532H121.803V90.8322H121.119V86.3583H121.803V88.1899H124.184V86.3583Z" fill="black"/>
<path d="M128.286 90.9328C127.846 90.9328 127.446 90.8323 127.084 90.6312C126.722 90.4302 126.438 90.151 126.236 89.7959C126.032 89.4407 125.932 89.0409 125.932 88.5987C125.932 87.9242 126.156 87.368 126.602 86.9258C127.049 86.4835 127.611 86.2624 128.286 86.2624C128.73 86.2624 129.132 86.3629 129.492 86.5639C129.852 86.7649 130.134 87.0441 130.34 87.4015C130.547 87.7566 130.649 88.1565 130.649 88.5987C130.649 89.2665 130.425 89.8227 129.974 90.2672C129.523 90.7094 128.961 90.9328 128.286 90.9328ZM127.111 89.7847C127.422 90.0974 127.815 90.2538 128.288 90.2538C128.763 90.2538 129.156 90.0974 129.465 89.7847C129.776 89.472 129.932 89.0767 129.932 88.5965C129.932 88.1162 129.776 87.7209 129.465 87.4082C129.154 87.0955 128.761 86.9414 128.288 86.9414C127.813 86.9414 127.42 87.0977 127.111 87.4082C126.8 87.7209 126.647 88.1162 126.647 88.5965C126.647 89.0767 126.802 89.472 127.111 89.7847Z" fill="black"/>
<path d="M135.87 88.6121C135.87 88.6724 135.864 88.7595 135.855 88.869H132.057C132.112 89.2822 132.281 89.615 132.568 89.8674C132.852 90.1198 133.205 90.2448 133.623 90.2448C133.929 90.2448 134.202 90.1778 134.442 90.0416C134.68 89.9076 134.871 89.7155 135.015 89.4653H135.748C135.562 89.9299 135.282 90.2895 134.909 90.5464C134.536 90.8032 134.107 90.9328 133.625 90.9328C132.983 90.9328 132.443 90.7094 132.01 90.2627C131.577 89.816 131.359 89.2598 131.359 88.5942C131.359 87.9286 131.577 87.3747 132.01 86.9302C132.443 86.4858 132.983 86.2624 133.625 86.2624C134.289 86.2624 134.831 86.488 135.248 86.9414C135.662 87.3926 135.87 87.9487 135.87 88.6121ZM133.623 86.9302C133.358 86.9302 133.119 86.9838 132.903 87.0866C132.685 87.1916 132.506 87.3412 132.363 87.5378C132.221 87.7343 132.124 87.9599 132.075 88.2123H135.164C135.115 87.9532 135.017 87.7254 134.875 87.5288C134.733 87.3323 134.553 87.1826 134.34 87.0821C134.125 86.9816 133.885 86.9302 133.623 86.9302Z" fill="black"/>
<path d="M139.075 86.3583H142.846V90.8322H142.154V87.0061H139.773V90.8322H139.073V86.3583H139.075Z" fill="black"/>
<path d="M146.62 86.2601C147.284 86.2601 147.833 86.4812 148.263 86.9234C148.694 87.3657 148.91 87.9241 148.91 88.5964C148.91 89.2642 148.694 89.8204 148.263 90.2648C147.833 90.7093 147.284 90.9327 146.62 90.9327C145.949 90.9327 145.398 90.7004 144.965 90.2358V92.4314H144.266V86.3606H144.743L144.883 87.0485C145.092 86.8006 145.345 86.6063 145.645 86.4678C145.942 86.3293 146.267 86.2601 146.62 86.2601ZM146.569 90.2537C147.042 90.2537 147.431 90.0973 147.739 89.7824C148.046 89.4675 148.201 89.0721 148.201 88.5986C148.201 88.1229 148.048 87.7297 147.739 87.4148C147.433 87.0999 147.042 86.9435 146.569 86.9435C146.096 86.9435 145.705 87.1021 145.396 87.4193C145.085 87.7365 144.93 88.1296 144.93 88.6008C144.93 88.9091 145.001 89.1905 145.141 89.4451C145.281 89.6997 145.476 89.8985 145.729 90.0415C145.982 90.18 146.262 90.2537 146.569 90.2537Z" fill="black"/>
<path d="M151.973 90.9328C151.533 90.9328 151.133 90.8323 150.771 90.6312C150.409 90.4302 150.125 90.151 149.923 89.7959C149.718 89.4407 149.618 89.0409 149.618 88.5987C149.618 87.9242 149.843 87.368 150.289 86.9258C150.735 86.4835 151.297 86.2624 151.973 86.2624C152.417 86.2624 152.819 86.3629 153.179 86.5639C153.538 86.7649 153.82 87.0441 154.027 87.4015C154.233 87.7566 154.336 88.1565 154.336 88.5987C154.336 89.2665 154.111 89.8227 153.66 90.2672C153.212 90.7094 152.648 90.9328 151.973 90.9328ZM150.8 89.7847C151.111 90.0974 151.504 90.2538 151.977 90.2538C152.452 90.2538 152.845 90.0974 153.154 89.7847C153.465 89.472 153.62 89.0767 153.62 88.5965C153.62 88.1162 153.465 87.7209 153.154 87.4082C152.843 87.0955 152.45 86.9414 151.977 86.9414C151.502 86.9414 151.109 87.0977 150.8 87.4082C150.489 87.7209 150.336 88.1162 150.336 88.5965C150.333 89.0767 150.489 89.472 150.8 89.7847Z" fill="black"/>
<path d="M158.668 86.3583H159.055V90.8322H158.395V87.6359L155.801 90.8322H155.397V86.3583H156.063V89.53L158.668 86.3583Z" fill="black"/>
<path d="M162.787 88.4714C163.193 88.6925 163.397 89.0566 163.397 89.5658C163.397 89.8316 163.324 90.0662 163.18 90.2739C163.035 90.4816 162.831 90.6424 162.571 90.7586C162.311 90.8747 162.018 90.9328 161.694 90.9328C161.221 90.9328 160.832 90.8122 160.528 90.5687C160.224 90.3252 160.05 89.9991 160.013 89.5904H160.646C160.69 89.8004 160.805 89.9656 160.992 90.084C161.179 90.2024 161.412 90.2627 161.692 90.2627C161.989 90.2627 162.231 90.1935 162.425 90.055C162.616 89.9165 162.713 89.7356 162.713 89.5078C162.713 89.2978 162.631 89.1236 162.471 88.9851C162.309 88.8466 162.105 88.7774 161.858 88.7774H161.199V88.2056H161.858C162.089 88.2056 162.274 88.1453 162.413 88.0269C162.553 87.9085 162.624 87.7544 162.624 87.5668C162.624 87.3635 162.54 87.196 162.369 87.0709C162.198 86.9436 161.974 86.8811 161.694 86.8811C161.447 86.8811 161.241 86.9369 161.076 87.0464C160.912 87.1558 160.808 87.3055 160.763 87.4931H160.13C160.152 87.2496 160.232 87.0352 160.372 86.8476C160.512 86.66 160.699 86.5148 160.932 86.4121C161.165 86.3093 161.425 86.2579 161.709 86.2579C162.165 86.2579 162.542 86.3763 162.838 86.6131C163.133 86.8498 163.282 87.1491 163.282 87.5065C163.282 87.942 163.118 88.2614 162.787 88.4714Z" fill="black"/>
<path d="M167.351 88.5137C167.575 88.5964 167.755 88.7348 167.89 88.9269C168.026 89.1212 168.092 89.3379 168.092 89.5814C168.092 89.941 167.961 90.238 167.701 90.477C167.442 90.7138 167.115 90.8322 166.726 90.8322H164.494V86.3583H166.702C167.071 86.3583 167.368 86.4655 167.599 86.6777C167.83 86.8899 167.946 87.1624 167.946 87.493C167.946 87.6426 167.921 87.7833 167.873 87.9151C167.824 88.0469 167.755 88.1653 167.666 88.268C167.575 88.3708 167.471 88.4512 167.351 88.5137ZM167.251 87.6181C167.251 87.4349 167.191 87.2897 167.069 87.1825C166.949 87.0753 166.791 87.0217 166.6 87.0217H165.176V88.2055H166.6C166.798 88.2055 166.955 88.1519 167.073 88.0447C167.193 87.9375 167.251 87.7945 167.251 87.6181ZM166.642 90.1688C166.78 90.1688 166.904 90.1397 167.017 90.0817C167.131 90.0236 167.217 89.9454 167.277 89.8449C167.337 89.7466 167.368 89.6327 167.368 89.5099C167.368 89.387 167.337 89.2731 167.277 89.1704C167.217 89.0676 167.131 88.9895 167.017 88.9336C166.904 88.8778 166.778 88.851 166.633 88.851H165.176V90.1688H166.642Z" fill="black"/>
<path d="M171.222 90.9328C170.782 90.9328 170.382 90.8323 170.02 90.6312C169.658 90.4302 169.374 90.151 169.172 89.7959C168.967 89.4407 168.867 89.0409 168.867 88.5987C168.867 87.9242 169.092 87.368 169.538 86.9258C169.985 86.4835 170.546 86.2624 171.222 86.2624C171.666 86.2624 172.068 86.3629 172.428 86.5639C172.787 86.7649 173.07 87.0441 173.276 87.4015C173.483 87.7566 173.585 88.1565 173.585 88.5987C173.585 89.2665 173.36 89.8227 172.91 90.2672C172.459 90.7094 171.897 90.9328 171.222 90.9328ZM170.047 89.7847C170.358 90.0974 170.751 90.2538 171.224 90.2538C171.699 90.2538 172.092 90.0974 172.401 89.7847C172.712 89.472 172.867 89.0767 172.867 88.5965C172.867 88.1162 172.712 87.7209 172.401 87.4082C172.09 87.0955 171.697 86.9414 171.224 86.9414C170.749 86.9414 170.355 87.0977 170.047 87.4082C169.736 87.7209 169.583 88.1162 169.583 88.5965C169.583 89.0767 169.736 89.472 170.047 89.7847Z" fill="black"/>
<path d="M178.271 90.1688H178.873V92.0159H178.231V90.8322H174.649V92.0159H174.007V90.1688H174.484C174.615 90.0482 174.718 89.874 174.789 89.6506C174.86 89.4273 174.924 89.0855 174.982 88.6232C175.04 88.1608 175.108 87.4081 175.193 86.3583H178.273V90.1688H178.271ZM175.817 86.9815C175.768 87.7208 175.717 88.2971 175.664 88.708C175.613 89.119 175.553 89.434 175.486 89.6528C175.419 89.8717 175.335 90.0437 175.231 90.171H177.587V86.9815H175.817V86.9815Z" fill="black"/>
<path d="M181.78 90.9328C181.347 90.9328 180.952 90.8323 180.599 90.6312C180.246 90.4302 179.968 90.1488 179.766 89.7914C179.566 89.4318 179.466 89.0342 179.466 88.5987C179.466 87.9309 179.686 87.3747 180.13 86.9302C180.572 86.4858 181.123 86.2624 181.78 86.2624C182.307 86.2624 182.764 86.4076 183.151 86.7024C183.537 86.995 183.799 87.3836 183.937 87.8706H183.244C183.113 87.5847 182.915 87.3568 182.655 87.1916C182.395 87.0263 182.102 86.9436 181.778 86.9436C181.323 86.9436 180.943 87.1022 180.636 87.4194C180.332 87.7365 180.179 88.1296 180.179 88.6009C180.179 88.9092 180.248 89.1906 180.385 89.4407C180.523 89.6931 180.714 89.8897 180.958 90.0371C181.203 90.1823 181.476 90.256 181.778 90.256C182.102 90.256 182.391 90.1711 182.646 90.0036C182.902 89.8361 183.097 89.6016 183.235 89.3045H183.943C183.806 89.8003 183.541 90.1979 183.148 90.4928C182.76 90.7831 182.302 90.9328 181.78 90.9328Z" fill="black"/>
<path d="M188.312 86.3583V86.9971H186.657V90.8322H185.973V86.9971H184.319V86.3583H188.312Z" fill="black"/>
<path d="M192.019 88.5137C192.243 88.5964 192.423 88.7348 192.559 88.9269C192.694 89.1212 192.761 89.3379 192.761 89.5814C192.761 89.941 192.63 90.238 192.37 90.477C192.11 90.7138 191.783 90.8322 191.395 90.8322H189.161V86.3583H191.368C191.737 86.3583 192.034 86.4655 192.265 86.6777C192.496 86.8899 192.612 87.1624 192.612 87.493C192.612 87.6426 192.587 87.7833 192.539 87.9151C192.49 88.0469 192.421 88.1653 192.332 88.268C192.243 88.3708 192.139 88.4512 192.019 88.5137ZM191.919 87.6181C191.919 87.4349 191.859 87.2897 191.737 87.1825C191.617 87.0753 191.459 87.0217 191.268 87.0217H189.845V88.2055H191.268C191.466 88.2055 191.624 88.1519 191.741 88.0447C191.859 87.9375 191.919 87.7945 191.919 87.6181ZM191.31 90.1688C191.448 90.1688 191.572 90.1397 191.686 90.0817C191.799 90.0236 191.886 89.9454 191.946 89.8449C192.006 89.7466 192.037 89.6327 192.037 89.5099C192.037 89.387 192.006 89.2731 191.946 89.1704C191.886 89.0676 191.799 88.9895 191.686 88.9336C191.572 88.8778 191.446 88.851 191.302 88.851H189.845V90.1688H191.31Z" fill="black"/>
<path d="M195.888 90.9328C195.448 90.9328 195.048 90.8323 194.686 90.6312C194.324 90.4302 194.04 90.151 193.838 89.7959C193.634 89.4407 193.534 89.0409 193.534 88.5987C193.534 87.9242 193.758 87.368 194.204 86.9258C194.651 86.4835 195.213 86.2624 195.888 86.2624C196.332 86.2624 196.734 86.3629 197.094 86.5639C197.454 86.7649 197.736 87.0441 197.942 87.4015C198.149 87.7566 198.251 88.1565 198.251 88.5987C198.251 89.2665 198.027 89.8227 197.576 90.2672C197.127 90.7094 196.565 90.9328 195.888 90.9328ZM194.715 89.7847C195.026 90.0974 195.419 90.2538 195.892 90.2538C196.368 90.2538 196.761 90.0974 197.069 89.7847C197.38 89.472 197.536 89.0767 197.536 88.5965C197.536 88.1162 197.38 87.7209 197.069 87.4082C196.759 87.0955 196.365 86.9414 195.892 86.9414C195.417 86.9414 195.024 87.0977 194.715 87.4082C194.404 87.7209 194.251 88.1162 194.251 88.5965C194.249 89.0767 194.404 89.472 194.715 89.7847Z" fill="black"/>
<path d="M101.334 80.3657C101.196 75.4496 101.057 70.5313 100.919 65.6152C100.912 65.3718 101.108 65.1685 101.35 65.1685C101.594 65.1685 101.787 65.3718 101.781 65.6152C101.632 70.5313 101.483 75.4496 101.334 80.3657Z" fill="white"/>
<path d="M101.35 66.8571C101.285 66.8571 101.234 66.8058 101.234 66.741V65.5862C101.234 65.5215 101.285 65.4701 101.35 65.4701C101.414 65.4701 101.465 65.5215 101.465 65.5862V66.741C101.465 66.8058 101.412 66.8571 101.35 66.8571Z" fill="black"/>
</svg>
