<svg width="201" height="103" viewBox="0 0 201 103" fill="none" xmlns="http://www.w3.org/2000/svg">
<path d="M55.9746 3.62452V4.84923H39.3782V3.62452H39.9523L39.9613 3.47792C39.9613 1.57205 41.585 0 43.5766 0H52.0744C54.066 0 55.6897 1.57205 55.6897 3.50273L55.6987 3.62452H55.9746Z" fill="#DE9F42"/>
<path d="M64.508 99.044H61.6418L61.7405 100.648C61.7786 101.259 61.5678 101.838 61.1506 102.285C60.7268 102.741 60.1235 103 59.4955 103H36.1574C35.5294 103 34.9261 102.741 34.5022 102.285C34.0851 101.838 33.8743 101.257 33.9124 100.652L34.0111 99.044H30.8466V97.8125H64.5103V99.044H64.508Z" fill="#DE9F42"/>
<path d="M73.1943 92.325L72.7951 88.1208L72.7099 87.2502L72.6561 86.6863L72.3847 83.8196L72.3309 83.2535L72.0573 80.3868L72.0034 79.8207L71.7321 76.954L71.6782 76.3902L71.4024 73.5212L71.3508 72.9573L70.743 66.5631L69.8773 57.4759L69.8526 57.2143L69.3413 51.8237L69.2875 51.2689L69.0183 48.4608L68.969 47.9082L68.9286 47.4932L68.6976 45.0979L68.6483 44.5431L68.3814 41.7328L68.3276 41.1802L68.0584 38.3699L68.0091 37.8173L67.9508 37.2264L67.897 36.667L67.8678 36.349L66.9707 26.9144L66.9169 26.3483L66.641 23.4816L66.5872 22.9155L66.3427 20.324L66.3158 20.0488L66.2956 19.8278L66.262 19.485L65.9884 16.616L65.9345 16.0521L65.8807 15.4747L65.8291 14.938L65.6632 13.1855L65.6093 12.6193L65.3716 10.1225L65.3178 9.56545L65.2819 9.19781C65.2752 9.12112 65.2662 9.04444 65.255 8.97001C65.2438 8.89332 65.2348 8.81664 65.2214 8.74221C65.2124 8.68356 65.2012 8.62718 65.1877 8.57079C65.181 8.51892 65.1653 8.4693 65.1563 8.41968C65.1473 8.37006 65.1361 8.32044 65.1227 8.27307C65.0621 8.03399 64.9971 7.81972 64.9208 7.61899C64.8087 7.3145 64.6696 7.02129 64.5082 6.74387C64.4229 6.58599 64.3287 6.43036 64.2256 6.28376C64.2031 6.25218 64.1785 6.2206 64.156 6.18677C64.017 5.98829 63.8667 5.79883 63.6985 5.62065C63.1961 5.07032 62.6041 4.61923 61.9424 4.28091C61.0947 3.85237 60.1415 3.62457 59.1883 3.62457H35.7471C34.7872 3.62457 33.8363 3.85237 32.9907 4.28317C32.3246 4.61923 31.7348 5.07258 31.2436 5.61389C31.0799 5.79207 30.9229 5.98378 30.7771 6.18677C30.7525 6.21384 30.7345 6.24316 30.7121 6.27474C30.6269 6.39879 30.5394 6.53637 30.4564 6.68523C30.4452 6.70553 30.4362 6.72357 30.425 6.74387C30.3734 6.83409 30.3241 6.92431 30.2792 7.01904C30.1783 7.2085 30.0931 7.40698 30.0168 7.61673C29.9339 7.83551 29.8666 8.05429 29.8128 8.26856C29.806 8.29337 29.7993 8.32495 29.7881 8.36555L29.7746 8.41968C29.7477 8.54373 29.723 8.66552 29.7051 8.79183C29.6804 8.93843 29.6625 9.0918 29.649 9.24743L29.6401 9.34441L29.6221 9.56545L29.5728 10.1225L29.3978 12.157L29.3485 12.7118L29.1063 15.5221L29.0569 16.077L28.8147 18.8873L28.7654 19.4444L28.5232 22.2569L28.4761 22.8095L28.2428 25.4822L28.2383 25.5476L28.1845 26.1634L28.18 26.2107L27.3031 36.349L27.2762 36.667L27.2269 37.2264L26.7963 42.2109L26.7469 42.7748L26.498 45.637L26.4509 46.2008L26.2042 49.0675L26.1526 49.6314L26.1324 49.8953L26.1257 49.9449L26.0584 50.7276L25.9081 52.4958L25.8565 53.062L25.6121 55.9264L25.574 56.3459L25.5605 56.4903L25.473 57.4759L24.6903 66.5631L24.5692 67.9705L24.5199 68.5231L24.2776 71.3357L24.2283 71.8905L23.9861 74.7031L23.9367 75.2557L23.6945 78.0682L23.6452 78.6231L23.403 81.4356L23.3559 81.9882L22.8243 88.1208L22.4588 92.3475C22.4408 92.5595 22.4363 92.7715 22.4408 92.979C22.4408 93.1257 22.4498 93.2677 22.4588 93.3895C22.4812 93.6985 22.5328 94.0121 22.6045 94.3098C22.6584 94.5489 22.7234 94.7699 22.7997 94.9661C22.849 95.1127 22.9073 95.2571 22.9634 95.3789C23.1069 95.7082 23.2796 96.0239 23.477 96.3149C23.6272 96.5427 23.7977 96.7637 23.9794 96.9712C24.0915 97.0975 24.2126 97.2238 24.3382 97.3411C24.7352 97.7268 25.186 98.0561 25.6704 98.3132C26.2782 98.6448 26.9331 98.8635 27.6283 98.9718C27.9423 99.0169 28.254 99.0417 28.5591 99.0417H67.0941C67.2937 99.0417 67.4933 99.0304 67.6682 99.0147C67.7781 99.0034 67.888 98.9898 67.9979 98.9763L68.036 98.9718C68.7223 98.8635 69.3817 98.6402 69.9782 98.3155C70.3617 98.1125 70.7296 97.8599 71.0705 97.5666C71.2835 97.384 71.4876 97.1832 71.6625 96.9825C71.8442 96.7772 72.0169 96.554 72.1649 96.3307C72.2815 96.166 72.3892 95.9856 72.4924 95.7916C72.6359 95.5255 72.757 95.248 72.8534 94.9751C72.8669 94.9458 72.8781 94.912 72.8848 94.8804C72.9566 94.6842 73.0104 94.497 73.0486 94.3233C73.1562 93.8857 73.2123 93.4324 73.2145 92.9813C73.2213 92.7761 73.2123 92.5618 73.1943 92.325ZM36.929 54.7197L42.1434 54.1626L48.4949 53.486L49.2709 53.4048L67.408 51.4696L67.4619 52.0244L49.2754 53.9619L49.1139 53.9799L48.9636 53.9957L48.3581 54.0611L48.228 54.0747L48.2033 54.0769L47.3915 54.1626L42.1771 54.7197L37.2161 55.2475H31.9658L36.929 54.7197Z" fill="#FF486F"/>
<path d="M55.7592 4.54926L54.9496 4.59888L54.8868 3.62452L54.8823 3.52754C54.8823 2.02089 53.6241 0.81422 52.0744 0.81422H43.5766C42.0291 0.81422 40.7686 2.02089 40.7686 3.50498L40.7597 3.62678L40.7014 4.60113L39.8917 4.55151L39.95 3.62678L39.959 3.48017C39.9612 1.57205 41.585 0 43.5766 0H52.0744C54.0659 0 55.6897 1.57205 55.6897 3.50273L55.6987 3.62452L55.7592 4.54926Z" fill="black"/>
<path d="M61.1507 102.283C60.7269 102.738 60.1236 102.998 59.4956 102.998H36.1575C35.5295 102.998 34.9262 102.738 34.5023 102.283C34.0852 101.836 33.8744 101.254 33.9125 100.65L34.0112 99.0417L34.074 98.0651L34.8836 98.1169L34.8275 99.0417L34.7221 100.699C34.6974 101.083 34.8298 101.446 35.0922 101.728C35.3635 102.019 35.756 102.186 36.1597 102.186H59.5001C59.9038 102.186 60.2962 102.017 60.5676 101.728C60.83 101.446 60.9623 101.083 60.9377 100.699L60.9287 100.591L60.8323 99.0439L60.7762 98.1214L61.5858 98.0673L61.6486 99.0439L61.7473 100.648C61.7787 101.257 61.5701 101.836 61.1507 102.283Z" fill="black"/>
<path d="M61.5187 5.13116H33.417C34.119 4.77254 34.9107 4.57631 35.7472 4.57631H59.1885C60.025 4.57406 60.8167 4.77479 61.5187 5.13116Z" fill="black"/>
<path d="M51.1256 49.8095C51.0224 50.0057 50.9215 50.202 50.8183 50.4004L49.8562 50.5042C49.9459 50.308 50.0334 50.114 50.1253 49.9178V49.9155L51.1256 49.8095Z" fill="black"/>
<path d="M52.9781 46.2142C52.875 46.4105 52.7763 46.6067 52.6731 46.8052L51.4867 46.9337C51.5786 46.7375 51.6684 46.5413 51.7558 46.3451L52.9781 46.2142Z" fill="black"/>
<path d="M54.8306 42.6214C54.732 42.8199 54.6288 43.0184 54.5256 43.2123L53.1172 43.3612C53.2069 43.165 53.2988 42.971 53.3863 42.7725L54.8306 42.6214Z" fill="black"/>
<path d="M66.1969 28.7774H28.9066L28.9537 28.2225H66.1431L66.1969 28.7774Z" fill="black"/>
<path d="M66.1969 25.3987H28.9066L28.9537 24.8438H66.1431L66.1969 25.3987Z" fill="black"/>
<path d="M63.4719 10.1225H31.4701L31.5172 9.56543H63.4226L63.4719 10.1225Z" fill="black"/>
<path d="M64.5081 6.74381H30.4249C30.4361 6.72576 30.4474 6.70547 30.4563 6.68742C30.5393 6.53856 30.6268 6.40098 30.712 6.27467C30.7344 6.24535 30.7524 6.21603 30.777 6.18896H64.1537C64.1784 6.22054 64.203 6.25437 64.2232 6.28595C64.3286 6.43255 64.4228 6.58593 64.5081 6.74381Z" fill="black"/>
<path d="M66.5176 32.1561H28.6151L28.6645 31.6013H66.4661L66.5042 32.0072L66.5176 32.1561Z" fill="black"/>
<path d="M66.8002 35.1401L66.8383 35.5348H28.3213L28.3706 34.9799H66.7868L66.8002 35.1401Z" fill="black"/>
<path d="M66.8002 38.5187L66.8383 38.9134H28.3213L28.3706 38.3585H66.7868L66.8002 38.5187Z" fill="black"/>
<path d="M69.0901 59.1832H26.2782L26.3141 58.7434L26.3253 58.6261H69.0363L69.0385 58.6329L69.0901 59.1832Z" fill="black"/>
<path d="M69.0901 55.8045H26.2782L26.3163 55.3647L26.3253 55.2474H69.0363L69.0385 55.2519L69.0901 55.8045Z" fill="black"/>
<path d="M69.4108 62.5619H25.9844L26.0315 62.0048H69.3592L69.4108 62.5619Z" fill="black"/>
<path d="M69.7316 65.9406H25.6929L25.74 65.3835H69.68L69.7316 65.9406Z" fill="black"/>
<path d="M69.7316 69.3192H25.6929L25.74 68.7621H69.68L69.7316 69.3192Z" fill="black"/>
<path d="M71.9832 89.5868H23.6451L23.6945 89.032H71.9294L71.9832 89.5868Z" fill="black"/>
<path d="M71.9832 86.2081H23.6451L23.6945 85.6533H71.9294L71.9832 86.2081Z" fill="black"/>
<path d="M72.2705 92.9655H23.3852C23.3807 92.7895 23.3852 92.6136 23.4009 92.4332L23.4031 92.4084H72.2526C72.2683 92.5978 72.2772 92.7828 72.2705 92.9655Z" fill="black"/>
<path d="M71.3912 95.7893C71.2611 95.9855 71.1198 96.1727 70.9628 96.3442H24.6903C24.5333 96.1682 24.392 95.9833 24.262 95.7893H71.3912Z" fill="black"/>
<path d="M69.5364 97.4787C69.0318 97.7516 68.4778 97.9433 67.888 98.0335H27.7651C27.1753 97.9411 26.6213 97.7516 26.1167 97.4787H69.5364Z" fill="black"/>
<path d="M66.9706 26.9144V28.2203H65.1966L65.0531 26.7069L52.7583 25.3965L47.5439 24.8417L30.3532 23.008L30.1962 24.8417L30.1468 25.3965L29.9854 27.2618L29.9203 28.0151L29.9024 28.2181H29.7745V8.41516H31.7347C31.7257 8.44448 31.7168 8.4738 31.7078 8.50538C31.6809 8.58206 31.6629 8.65649 31.6428 8.73092L31.6338 8.76701C31.6226 8.8031 31.6181 8.82565 31.6114 8.84821C31.6001 8.89783 31.5889 8.94294 31.5844 8.99256L63.6895 12.4141L63.4002 9.37373C63.3777 9.16172 63.3441 8.95422 63.2903 8.73318C63.2723 8.65424 63.2499 8.57755 63.2275 8.50538C63.2163 8.47606 63.2095 8.44674 63.1983 8.41516H65.154L65.5667 12.6103L65.6205 13.1764L65.9031 16.0454L65.9569 16.6092L66.2395 19.4782L66.2933 20.042L66.5737 22.911L66.6297 23.4771L66.9101 26.3438L66.9706 26.9144Z" fill="#D8486E"/>
<path d="M72.795 88.1208H70.8954L70.7922 87.0472L62.9336 86.2082L57.7192 85.6533L52.7583 85.1255L47.5439 84.5684L25.2329 82.1912L24.9347 85.6533L24.8853 86.2082L24.7193 88.1208H22.8242L23.3535 81.9904L23.4028 81.4379L23.6451 78.6253L23.6944 78.0682L23.9366 75.2579L23.986 74.7031L24.2282 71.8928L24.2775 71.3357L24.5197 68.5254L24.5668 67.9705L24.6902 66.5631H26.5853L26.4463 68.1713L32.0016 68.7622L37.216 69.3193L69.4309 72.7543L69.1057 69.3193L69.0519 68.7622L68.8433 66.5631H70.7429L71.3507 72.9573L71.4023 73.5212L71.6781 76.3901L71.732 76.954L72.0033 79.8207L72.0572 80.3868L72.3308 83.2535L72.3846 83.8196L72.656 86.6863L72.7098 87.2502L72.795 88.1208Z" fill="#D8486E"/>
<path d="M69.8773 57.4759H67.9777L67.9552 57.2142L67.87 56.3459L67.8184 55.8046L67.7691 55.2475L67.4618 52.0244L67.408 51.4696L49.2709 53.4048L48.4949 53.486L42.1434 54.1626L36.929 54.7197L31.9658 55.2475H37.2161L32.0017 55.8046L27.4758 56.2872L27.4691 56.3459L27.3928 57.2142L27.3726 57.4759H25.473L25.5605 56.4902L25.5739 56.3459L25.6121 55.9264L25.8565 53.0619L25.9081 52.4958L26.0584 50.7275L26.1257 49.9449L26.1324 49.8953L26.1526 49.6314L26.2042 49.0675L26.4509 46.2008L26.498 45.637L26.7469 42.7748L26.7962 42.2109L27.2269 37.2264L27.2762 36.667L27.3031 36.349H29.1982L29.1713 36.667L29.122 37.2264L29.0255 38.3564L28.9762 38.9135L28.7093 42.0034L54.7342 39.2315L55.0213 39.1999L55.046 39.1976L56.3782 39.0555L56.6854 39.024L56.7011 39.0217L57.7216 38.9135L62.936 38.3564L66.1296 38.018L66.0534 37.2264L65.9996 36.667L65.9704 36.349H67.8678L67.8969 36.667L67.9508 37.2264L68.0091 37.8173L68.0584 38.3699L68.3275 41.1802L68.3814 41.7328L68.6483 44.5431L68.6976 45.0979L68.9286 47.4932L68.969 47.9082L69.0183 48.4608L69.2874 51.2689L69.3413 51.8237L69.8526 57.2142L69.8773 57.4759Z" fill="#D8486E"/>
<path d="M73.1943 92.325L72.7951 88.1208L72.7099 87.2502L72.6561 86.6863L72.3847 83.8196L72.3309 83.2535L72.0573 80.3868L72.0034 79.8207L71.7321 76.954L71.6782 76.3902L71.4024 73.5212L71.3508 72.9573L70.743 66.5631L69.8773 57.4759L69.8526 57.2143L69.3413 51.8237L69.2875 51.2689L69.0183 48.4608L68.969 47.9082L68.9286 47.4932L68.6976 45.0979L68.6483 44.5431L68.3814 41.7328L68.3276 41.1802L68.0584 38.3699L68.0091 37.8173L67.9508 37.2264L67.897 36.667L67.8678 36.349L66.9707 26.9144L66.9169 26.3483L66.641 23.4816L66.5872 22.9155L66.3427 20.324L66.3158 20.0488L66.2956 19.8278L66.262 19.485L65.9884 16.616L65.9345 16.0521L65.8807 15.4747L65.8291 14.938L65.6632 13.1855L65.6093 12.6193L65.3716 10.1225L65.3178 9.56545L65.2819 9.19781C65.2752 9.12112 65.2662 9.04444 65.255 8.97001C65.2438 8.89332 65.2348 8.81664 65.2214 8.74221C65.2124 8.68356 65.2012 8.62718 65.1877 8.57079C65.181 8.51892 65.1653 8.4693 65.1563 8.41968C65.1473 8.37006 65.1361 8.32044 65.1227 8.27307C65.0621 8.03399 64.9971 7.81972 64.9208 7.61899C64.8087 7.3145 64.6696 7.02129 64.5082 6.74387C64.4229 6.58599 64.3287 6.43036 64.2256 6.28376C64.2031 6.25218 64.1785 6.2206 64.156 6.18677C64.017 5.98829 63.8667 5.79883 63.6985 5.62065C63.1961 5.07032 62.6041 4.61923 61.9424 4.28091C61.0947 3.85237 60.1415 3.62457 59.1883 3.62457H35.7471C34.7872 3.62457 33.8363 3.85237 32.9907 4.28317C32.3246 4.61923 31.7348 5.07258 31.2436 5.61389C31.0799 5.79207 30.9229 5.98378 30.7771 6.18677C30.7525 6.21384 30.7345 6.24316 30.7121 6.27474C30.6269 6.39879 30.5394 6.53637 30.4564 6.68523C30.4452 6.70553 30.4362 6.72357 30.425 6.74387C30.3734 6.83409 30.3241 6.92431 30.2792 7.01904C30.1783 7.2085 30.0931 7.40698 30.0168 7.61673C29.9339 7.83551 29.8666 8.05429 29.8128 8.26856C29.806 8.29337 29.7993 8.32495 29.7881 8.36555L29.7746 8.41968C29.7477 8.54373 29.723 8.66552 29.7051 8.79183C29.6804 8.93843 29.6625 9.0918 29.649 9.24743L29.6401 9.34441L29.6221 9.56545L29.5728 10.1225L29.3978 12.157L29.3485 12.7118L29.1063 15.5221L29.0569 16.077L28.8147 18.8873L28.7654 19.4444L28.5232 22.2569L28.4761 22.8095L28.2428 25.4822L28.2383 25.5476L28.1845 26.1634L28.18 26.2107L27.3031 36.349L27.2762 36.667L27.2269 37.2264L26.7963 42.2109L26.7469 42.7748L26.498 45.637L26.4509 46.2008L26.2042 49.0675L26.1526 49.6314L26.1324 49.8953L26.1257 49.9449L26.0584 50.7276L25.9081 52.4958L25.8565 53.062L25.6121 55.9264L25.574 56.3459L25.5605 56.4903L25.473 57.4759L24.6903 66.5631L24.5692 67.9705L24.5199 68.5231L24.2776 71.3357L24.2283 71.8905L23.9861 74.7031L23.9367 75.2557L23.6945 78.0682L23.6452 78.6231L23.403 81.4356L23.3559 81.9882L22.8243 88.1208L22.4588 92.3475C22.4408 92.5595 22.4363 92.7715 22.4408 92.979C22.4408 93.1257 22.4498 93.2677 22.4588 93.3895C22.4812 93.6985 22.5328 94.0121 22.6045 94.3098C22.6584 94.5489 22.7234 94.7699 22.7997 94.9661C22.849 95.1127 22.9073 95.2571 22.9634 95.3789C23.1069 95.7082 23.2796 96.0239 23.477 96.3149C23.6272 96.5427 23.7977 96.7637 23.9794 96.9712C24.0915 97.0975 24.2126 97.2238 24.3382 97.3411C24.7352 97.7268 25.186 98.0561 25.6704 98.3132C26.2782 98.6448 26.9331 98.8635 27.6283 98.9718C27.9423 99.0169 28.254 99.0417 28.5591 99.0417H67.0941C67.2937 99.0417 67.4933 99.0304 67.6682 99.0147C67.7781 99.0034 67.888 98.9898 67.9979 98.9763L68.036 98.9718C68.7223 98.8635 69.3817 98.6402 69.9782 98.3155C70.3617 98.1125 70.7296 97.8599 71.0705 97.5666C71.2835 97.384 71.4876 97.1832 71.6625 96.9825C71.8442 96.7772 72.0169 96.554 72.1649 96.3307C72.2815 96.166 72.3892 95.9856 72.4924 95.7916C72.6359 95.5255 72.757 95.248 72.8534 94.9751C72.8669 94.9458 72.8781 94.912 72.8848 94.8804C72.9566 94.6842 73.0104 94.497 73.0486 94.3233C73.1562 93.8857 73.2123 93.4324 73.2145 92.9813C73.2213 92.7761 73.2123 92.5618 73.1943 92.325ZM69.0901 96.6419C68.6707 96.8675 68.2222 97.0231 67.7467 97.0953C67.6682 97.1065 67.5942 97.1178 67.4977 97.1246C67.3699 97.1381 67.2309 97.1449 67.0941 97.1449H28.5591C28.346 97.1449 28.124 97.1291 27.9109 97.0953C27.4377 97.0231 26.9846 96.8697 26.5608 96.6397C26.397 96.5539 26.2378 96.4525 26.0853 96.3442C25.9306 96.2314 25.7825 96.1051 25.6412 95.9698C25.5784 95.9111 25.5201 95.8502 25.4641 95.7894C25.4394 95.7645 25.4147 95.7397 25.3923 95.7127C25.2645 95.5661 25.1501 95.4172 25.0424 95.2571C24.9079 95.0563 24.789 94.8398 24.6813 94.5985C24.6432 94.515 24.6118 94.4293 24.5737 94.3233C24.5221 94.1857 24.4795 94.0414 24.4414 93.8722C24.3898 93.6625 24.3561 93.4527 24.3427 93.2317C24.3315 93.1437 24.3292 93.0557 24.3292 92.9655V92.9362C24.3225 92.7986 24.3292 92.661 24.3382 92.537L24.3494 92.4107L24.5961 89.5868L24.641 89.032L24.7195 88.1208L24.8854 86.2082L24.9348 85.6533L25.2331 82.1889L25.2824 81.6364L25.5246 78.8215L25.574 78.2689L25.8162 75.4564L25.8655 74.9038L26.1077 72.089L26.1571 71.5364L26.3477 69.317L26.397 68.7622L26.3993 68.7239L26.4464 68.1713L26.5854 66.5631L26.6393 65.9384L26.6864 65.3835L26.9308 62.5597L26.9779 62.0048L27.2246 59.1833L27.2717 58.6262L27.3726 57.4759L27.3928 57.2143L27.4691 56.3459L27.4758 56.2873L27.5162 55.8046L27.5229 55.7211L27.5633 55.2475L27.7719 52.8567L27.7853 52.7011L27.7965 52.568L27.819 52.2928L27.8459 51.9726L28.0679 49.4284L28.1172 48.8645L28.3639 45.9979L28.4133 45.434L28.6622 42.5718L28.7093 42.0034L28.9762 38.9135L29.0256 38.3564L29.122 37.2264L29.1713 36.667L29.1982 36.349L29.2678 35.5348L29.3171 34.9777L29.5616 32.1561L29.6109 31.599L29.8531 28.7774L29.9025 28.2203L29.9204 28.0174L29.9854 27.264L30.1469 25.3988L30.1963 24.8417L30.351 23.0102L30.4004 22.4576L30.6448 19.6451L30.6919 19.088L30.9364 16.2777L30.9835 15.7228L31.2279 12.9125L31.2773 12.3555L31.4702 10.1225L31.5173 9.56545L31.5195 9.54515L31.5307 9.41433C31.5397 9.26773 31.5599 9.13015 31.5868 8.99256C31.5913 8.9452 31.6025 8.89783 31.6137 8.85047C31.6182 8.82791 31.6249 8.8031 31.6361 8.76927L31.6428 8.73319C31.663 8.66101 31.681 8.58433 31.7079 8.50764C31.7169 8.47832 31.7258 8.449 31.7348 8.41968C31.7505 8.37231 31.764 8.3272 31.7841 8.27984C31.8268 8.16481 31.8716 8.05429 31.9254 7.9528C31.9344 7.93024 31.9479 7.90543 31.9591 7.88513L31.977 7.84679C32.0129 7.77236 32.0533 7.70019 32.0959 7.62801C32.1475 7.53779 32.2013 7.44757 32.2596 7.36187C32.374 7.19496 32.4951 7.0461 32.6297 6.90401C32.679 6.84762 32.7306 6.79349 32.7822 6.74387C32.9907 6.53411 33.224 6.34691 33.4774 6.18677C33.5918 6.11009 33.7174 6.04017 33.843 5.97476C34.4328 5.67478 35.072 5.52367 35.7471 5.52367H59.1883C59.8567 5.52367 60.4981 5.67478 61.0924 5.97476C61.218 6.04017 61.3414 6.11009 61.458 6.18677C61.7092 6.34691 61.9447 6.53411 62.1577 6.74387C62.2116 6.798 62.2632 6.85213 62.3147 6.90626C62.4426 7.0461 62.5614 7.19947 62.6713 7.36187C62.8014 7.54907 62.9158 7.74529 63.0122 7.9528C63.0638 8.06106 63.1109 8.17383 63.1558 8.28886C63.1715 8.33171 63.1872 8.37457 63.2006 8.41968C63.2118 8.449 63.2186 8.47832 63.2298 8.50764C63.2522 8.58207 63.2746 8.6565 63.2926 8.73544C63.3464 8.95648 63.3823 9.16398 63.4025 9.37599L63.4227 9.56545L63.4742 10.1225L63.6918 12.4163L63.7456 12.9802L64.017 15.8492L64.0708 16.413L64.2592 18.3798L64.3085 18.9143L64.3444 19.2797L64.3983 19.8458L64.6719 22.7125L64.6921 22.9335L64.7235 23.2764L64.7392 23.4343L64.8737 24.8417L64.9276 25.3988L64.9993 26.1453L65.0531 26.7092L65.1967 28.2203L65.2505 28.7774L65.5174 31.599L65.5712 32.1561L65.8381 34.9777L65.8919 35.5348L65.9704 36.349L65.9996 36.667L66.0534 37.2264L66.1297 38.018L66.1611 38.3564L66.1812 38.5706L66.2127 38.9135L66.4481 41.3809L66.502 41.9335L66.7688 44.7438L66.8227 45.2964L67.0896 48.109L67.1411 48.6616L67.408 51.4696L67.4619 52.0244L67.7691 55.2475L67.8185 55.8046L67.87 56.3459L67.9553 57.2143L67.9777 57.4759L68.0898 58.6262L68.1414 59.1833L68.4105 62.0048L68.4644 62.5597L68.7313 65.3835L68.7851 65.9384L68.8434 66.5631L69.052 68.7622L69.1058 69.317L69.431 72.7544L69.4848 73.3182L69.7584 76.1827L69.8123 76.751L70.0836 79.6177L70.1375 80.1816L70.4133 83.0505L70.4649 83.6144L70.6623 85.6533L70.7139 86.2082L70.7408 86.4788L70.7946 87.0472L70.8955 88.1208L70.983 89.032L71.0346 89.5868L71.3037 92.4107L71.3059 92.4422L71.3082 92.634L71.3239 92.6655C71.3306 92.7625 71.3306 92.8527 71.3284 92.9384V92.961C71.3284 92.9633 71.3284 92.9633 71.3284 92.9655C71.3239 93.2677 71.288 93.5767 71.2117 93.8903C71.1826 94.012 71.1467 94.1361 71.0974 94.2737L71.0794 94.3323C71.0794 94.3323 71.0794 94.3346 71.0772 94.3346C71.0121 94.5195 70.9314 94.7045 70.8282 94.8962C70.7565 95.0293 70.6892 95.1465 70.6084 95.2616C70.5008 95.4217 70.3842 95.5751 70.2541 95.7172C70.2317 95.742 70.2137 95.7645 70.189 95.7894C70.0836 95.9089 69.9715 96.0172 69.8437 96.1209C69.7517 96.1998 69.662 96.2765 69.5633 96.3442C69.4131 96.4547 69.2538 96.5562 69.0901 96.6419Z" fill="black"/>
<path d="M66.9707 26.9144L65.0532 26.7091L52.7584 25.3987L47.544 24.8438L30.3511 23.0102L29.7747 22.947L28.4739 22.8094L28.5232 22.2568L29.7747 22.3899L30.4004 22.4576L52.7921 24.8438L58.0065 25.3987L64.9994 26.1452L66.9124 26.3482H66.9169L66.9707 26.9144Z" fill="black"/>
<path d="M66.6409 23.4815L64.7233 23.2763L30.6447 19.645L28.7653 19.4442L28.8146 18.8894L30.6918 19.0901L64.6717 22.7124L66.587 22.9154L66.6409 23.4815Z" fill="black"/>
<path d="M66.3158 20.0487L64.3982 19.8457L30.9363 16.2776L29.0569 16.0768L29.1062 15.5242L30.9834 15.725L64.3444 19.2796L66.2619 19.4848L66.3158 20.0487Z" fill="black"/>
<path d="M65.9884 16.616L64.0708 16.413L31.2279 12.9125L29.3485 12.7118L29.3979 12.1592L31.2773 12.3577L64.017 15.8491L65.9346 16.0521L65.9884 16.616Z" fill="black"/>
<path d="M65.6632 13.1854L65.6229 13.1809L63.7457 12.9801L31.5196 9.54507L29.7747 9.35787L29.6401 9.34434L29.6491 9.24961C29.6626 9.09173 29.6805 8.94061 29.7052 8.79401L29.7747 8.80303L31.5868 8.99474L63.6919 12.4163L65.569 12.6147L65.6094 12.6193L65.6632 13.1854Z" fill="black"/>
<path d="M67.4618 52.0244L49.2753 53.9619L49.1138 53.9799L48.9635 53.9957L48.358 54.0611L48.2279 54.0747L48.2032 54.0769L47.3914 54.1626L42.177 54.7197L37.216 55.2475H31.9657L36.9289 54.7197L42.1433 54.1626L48.4948 53.486L49.2708 53.4048L67.4079 51.4696L67.4618 52.0244Z" fill="black"/>
<path d="M31.9658 55.2475H37.2161L32.0017 55.8046L27.4759 56.2872L26.9129 56.3459L25.5605 56.4902L25.574 56.3459L25.6121 55.9264L26.7514 55.8046L27.523 55.7211L31.9658 55.2475Z" fill="black"/>
<path d="M69.3413 51.8237L68.9287 51.8666L67.4619 52.0244L67.4081 51.4696L68.9287 51.3072L69.2875 51.2689L69.3413 51.8237Z" fill="black"/>
<path d="M69.0185 48.4608L68.9288 48.4698L67.1391 48.6615L50.8185 50.4005L49.8564 50.5042L27.772 52.8567L25.8567 53.0619L25.9083 52.4958L27.8191 52.2928L50.1255 49.9178V49.9156L51.1258 49.8096L67.0897 48.1089L68.9288 47.9105L68.9691 47.9082L69.0185 48.4608Z" fill="black"/>
<path d="M68.6975 45.098L66.8226 45.2965L52.673 46.8054L51.4866 46.9317L28.0678 49.4285L26.1525 49.6337L26.204 49.0699L28.1171 48.8646L51.758 46.343L52.978 46.2144L66.7687 44.7439L68.6459 44.5432L68.6975 45.098Z" fill="black"/>
<path d="M68.3792 41.735L66.502 41.9335L54.5257 43.2123L53.1195 43.3612L28.364 46.0001L26.4509 46.2031L26.498 45.6392L28.4133 45.4362L53.3886 42.7725L54.8307 42.6214L66.446 41.3809L68.3254 41.1802L68.3792 41.735Z" fill="black"/>
<path d="M68.0585 38.3721L67.1188 38.4713L66.179 38.5728L62.9697 38.9134L56.3827 39.6171L54.75 39.7908L28.66 42.5718L26.7469 42.7748L26.794 42.2109L28.7094 42.0057L55.0191 39.2021L56.6855 39.0239L57.7216 38.9134L62.936 38.3586L66.1297 38.018L68.0091 37.8173L68.0585 38.3721Z" fill="black"/>
<path d="M72.7099 87.2502L70.7924 87.0472L62.9338 86.2082L57.7193 85.6533L52.7584 85.1255L47.544 84.5684L25.2331 82.1912L23.3536 81.9904L23.403 81.4379L25.2824 81.6386L52.792 84.5684L58.0064 85.1255L62.9696 85.6533L68.184 86.2082L70.7385 86.4811L72.6561 86.6863L72.7099 87.2502Z" fill="black"/>
<path d="M72.3847 83.8196L70.4649 83.6144L25.5246 78.8238L23.6451 78.6253L23.6945 78.0682L25.5739 78.2689L70.4133 83.0505L72.3308 83.2535L72.3847 83.8196Z" fill="black"/>
<path d="M72.0574 80.3868L70.1376 80.1815L25.8163 75.4586L23.9369 75.2579L23.9862 74.703L25.8657 74.9037L70.0838 79.6176L72.0036 79.8206L72.0574 80.3868Z" fill="black"/>
<path d="M71.732 76.954L69.8122 76.751L26.1077 72.089L24.2283 71.8927L24.2776 71.3356L26.157 71.5364L69.7584 76.1849L71.6782 76.3901L71.732 76.954Z" fill="black"/>
<path d="M71.4024 73.5212L69.4849 73.3182L31.9703 69.3193L26.7537 68.7622L26.3993 68.7238L24.5199 68.5254L24.567 67.9705L26.4464 68.1713L32.0017 68.7622L37.2161 69.3193L69.431 72.7544L71.3508 72.9573L71.4024 73.5212Z" fill="black"/>
<path d="M28.7699 26.161C28.7497 26.3821 28.4895 26.4881 28.3258 26.3392C26.4531 24.6521 23.9255 23.0034 20.8328 22.4328C20.4089 22.3538 19.9783 22.2952 19.5342 22.2591C15.5129 21.9388 11.2001 23.583 7.69471 26.7655C4.03902 30.0833 1.5047 34.8085 0.533592 40.0907C0.506679 40.2351 0.369871 40.3321 0.226335 40.3073H0.224092C0.0760701 40.2825 -0.0226111 40.1381 0.00430193 39.9915C0.995599 34.5942 3.59047 29.763 7.33362 26.3618C10.9467 23.0778 15.4075 21.3862 19.5768 21.72C20.0052 21.7561 20.4246 21.8103 20.8328 21.8824C24.0848 22.4553 26.7312 24.1762 28.6824 25.9355C28.7452 25.9919 28.7788 26.0753 28.7699 26.161Z" fill="black"/>
<path d="M49.114 53.9799C49.0646 54.0746 49.0131 54.1694 48.9637 54.2663L48.4591 55.2475C48.3627 55.4324 48.2685 55.6174 48.172 55.8046C47.6876 56.7451 47.2032 57.6856 46.7187 58.6261C46.6223 58.8111 46.5258 58.9983 46.4316 59.1832C45.9472 60.1238 45.4628 61.0643 44.9761 62.0048C44.8819 62.1898 44.7855 62.3747 44.689 62.5597C44.2068 63.5002 43.7224 64.4407 43.2357 65.3835C43.1415 65.5684 43.0473 65.7534 42.9509 65.9383C42.8903 66.0556 42.8298 66.1752 42.7692 66.2924C42.8231 66.1752 42.8769 66.0556 42.9307 65.9383C43.0159 65.7534 43.1012 65.5684 43.1841 65.3835C43.6147 64.4407 44.0454 63.5002 44.4737 62.5597C44.5589 62.3747 44.6442 62.1898 44.7271 62.0048C45.1578 61.062 45.5884 60.1215 46.0167 59.1832C46.102 58.996 46.1872 58.8111 46.2702 58.6261C46.7008 57.6834 47.1314 56.7451 47.5598 55.8046C47.645 55.6196 47.7302 55.4324 47.8154 55.2475C47.9522 54.9475 48.0913 54.6453 48.2281 54.3453C48.2707 54.2506 48.3133 54.1558 48.3582 54.0611L48.2281 54.0746L48.2034 54.0769C48.1698 54.1468 48.1384 54.2167 48.107 54.2889C47.9612 54.6092 47.8154 54.9272 47.6674 55.2475C47.5844 55.4324 47.4992 55.6174 47.414 55.8046C46.9834 56.7428 46.5528 57.6834 46.1221 58.6261C46.0369 58.8111 45.9539 58.996 45.8687 59.1832C45.4516 60.0944 45.0344 61.0056 44.6173 61.9191L44.5791 62.0048L44.3257 62.5597L43.0361 65.3835L42.7827 65.9383L42.6459 66.2361L42.8881 66.3533C42.9599 66.2157 43.0316 66.0759 43.1012 65.9383C43.1976 65.7534 43.2918 65.5684 43.3882 65.3835C43.8727 64.4407 44.3593 63.5002 44.8438 62.5597C44.938 62.3747 45.0344 62.1898 45.1286 62.0048C45.5256 61.2357 45.9203 60.4688 46.315 59.702L46.5819 59.1832L46.869 58.6261L48.3245 55.8046L48.6116 55.2475L49.2755 53.9619L49.114 53.9799Z" fill="black"/>
<path d="M49.1128 53.9797C49.0635 54.0744 49.0119 54.1691 48.9626 54.2661L48.4579 55.2472C48.3615 55.4322 48.2673 55.6171 48.1709 55.8043C47.6864 56.7449 47.202 57.6854 46.7176 58.6259C46.6211 58.8109 46.5247 58.9981 46.4305 59.183C45.946 60.1235 45.4616 61.0641 44.9749 62.0046C44.8807 62.1895 44.7843 62.3745 44.6879 62.5594C44.2057 63.5 43.7212 64.4405 43.2346 65.3833C43.1404 65.5682 43.0462 65.7532 42.9497 65.9381C42.8892 66.0554 42.8286 66.1749 42.7681 66.2922C42.8219 66.1749 42.8757 66.0554 42.9295 65.9381C43.0148 65.7532 43.1 65.5682 43.183 65.3833C43.6136 64.4405 44.0442 63.5 44.4726 62.5594C44.5578 62.3745 44.643 62.1895 44.726 62.0046C45.1566 61.0618 45.5872 60.1213 46.0156 59.183C46.1008 58.9958 46.186 58.8109 46.269 58.6259C46.6996 57.6831 47.1302 56.7449 47.5586 55.8043C47.6438 55.6194 47.729 55.4322 47.8143 55.2472C47.9511 54.9473 48.0901 54.645 48.2269 54.3451C48.2695 54.2503 48.3122 54.1556 48.357 54.0609L48.9626 53.9955L49.1128 53.9797Z" fill="#C9C9C9"/>
<path d="M72.4767 6.96713C72.3601 6.61302 72.0999 6.32884 71.7276 6.14614C71.4899 6.03112 71.2611 5.97247 71.0391 5.97247C70.8955 5.97247 70.7565 5.99503 70.6197 6.04465C70.2698 6.16644 70.0141 6.43484 69.9155 6.64685C64.9455 17.5182 60.0473 28.2451 55.1424 38.9856L55.0752 39.1322C55.0415 39.2066 55.0079 39.2833 54.9742 39.3578L56.2952 39.2179C56.3446 39.1232 56.3939 39.0262 56.4432 38.9315L56.5666 38.6901L61.4423 29.2375C65.0958 22.1554 68.756 15.0552 72.4475 7.88961C72.5485 7.69113 72.5978 7.328 72.4767 6.96713ZM71.4271 7.75654L69.8594 11.0901C69.7921 11.2299 69.6531 11.3111 69.5095 11.3111C69.4535 11.3111 69.3974 11.2999 69.3436 11.2751C69.1529 11.1826 69.0722 10.9503 69.1619 10.7586L70.7318 7.42499C70.8215 7.24004 71.0548 7.15208 71.2432 7.24004C71.3374 7.28515 71.4069 7.36409 71.4428 7.46108C71.4764 7.55806 71.4719 7.66181 71.4271 7.75654Z" fill="#C9C9C9"/>
<path d="M72.7324 6.87915C72.6338 6.58368 72.4005 6.17544 71.8443 5.90253C71.398 5.6815 70.9427 5.64316 70.5323 5.78751C70.0793 5.94764 69.7855 6.28822 69.6711 6.53181C64.7011 17.4054 59.803 28.1323 54.8981 38.8728L54.8308 39.0194C54.7635 39.166 54.6985 39.3149 54.6289 39.4592L54.5258 39.678L56.468 39.4705L56.5016 39.4074L56.6833 39.0555L61.6824 29.3616C65.3336 22.2794 68.996 15.1792 72.6876 8.01364C72.8065 7.78133 72.8872 7.34603 72.7324 6.87915ZM72.4476 7.88959C68.756 15.0552 65.0959 22.1554 61.4424 29.2375L56.5667 38.6901L56.4433 38.9315C56.394 39.0262 56.3446 39.1232 56.2953 39.2179L54.9743 39.3577C55.0079 39.2833 55.0416 39.2066 55.0752 39.1322L55.1425 38.9856C60.0474 28.2451 64.9456 17.5181 69.9155 6.64684C70.0142 6.43482 70.2699 6.16642 70.6198 6.04463C70.7566 5.99501 70.8956 5.97245 71.0392 5.97245C71.2612 5.97245 71.49 6.0311 71.7277 6.14612C72.1 6.32882 72.3601 6.613 72.4768 6.96711C72.5979 7.32798 72.5485 7.69111 72.4476 7.88959Z" fill="black"/>
<path d="M71.4428 7.46106C71.407 7.36408 71.3374 7.28513 71.2432 7.24003C71.0549 7.15206 70.8216 7.24003 70.7319 7.42497L69.162 10.7585C69.0723 10.9503 69.153 11.1826 69.3436 11.275C69.3975 11.2999 69.4535 11.3111 69.5096 11.3111C69.6531 11.3111 69.7922 11.2299 69.8595 11.0901L71.4272 7.75653C71.472 7.6618 71.4765 7.55805 71.4428 7.46106ZM71.1849 7.63924L69.615 10.9751C69.5881 11.0315 69.5163 11.0563 69.4603 11.0292C69.4019 11.0021 69.3773 10.9322 69.4064 10.8736L70.9741 7.54226C70.9943 7.50166 71.0347 7.47459 71.0795 7.47459C71.0952 7.47459 71.1154 7.4791 71.1289 7.48587C71.158 7.4994 71.1782 7.52196 71.1894 7.55128C71.1984 7.5806 71.1984 7.61218 71.1849 7.63924Z" fill="black"/>
<path d="M117.937 38.3406C117.574 37.1519 117.141 36.137 116.648 35.2957C116.154 34.4522 115.434 33.674 114.49 32.9613C113.544 32.2486 112.716 31.6757 112.007 31.2449C111.299 30.8141 110.301 30.3698 109.011 29.9164C107.721 29.4631 106.732 29.1383 106.046 28.9466C105.358 28.7504 104.328 28.4797 102.956 28.1369C101.706 27.8369 100.771 27.6091 100.148 27.4557C99.5242 27.3046 98.7639 27.0655 97.8623 26.743C96.9608 26.4205 96.2924 26.0957 95.864 25.7686C95.4334 25.4461 95.0589 25.0356 94.7359 24.5372C94.413 24.041 94.2515 23.4681 94.2515 22.8208C94.2515 21.4382 94.8862 20.3804 96.1556 19.6451C97.4228 18.9098 98.9142 18.5444 100.634 18.5444C102.568 18.5444 104.189 19.0293 105.499 20.0014C106.809 20.9758 107.464 22.39 107.464 24.2485H117.13C117.13 19.7127 115.701 16.1469 112.846 13.5531C109.989 10.9616 106.006 9.66467 100.895 9.66467C95.8237 9.66467 91.8271 10.8556 88.907 13.2306C85.987 15.6055 84.5247 18.9549 84.5247 23.2741C84.5247 24.3116 84.6323 25.295 84.8454 26.2242C85.0607 27.1512 85.3164 27.9722 85.6192 28.6872C85.9174 29.3999 86.3615 30.0811 86.9401 30.7284C87.5188 31.3757 88.0458 31.917 88.5168 32.3478C88.9878 32.7809 89.6584 33.2139 90.5173 33.6447C91.3741 34.0777 92.0738 34.4116 92.6098 34.6484C93.1458 34.8875 93.9218 35.1581 94.9311 35.4581C95.9403 35.7626 96.7028 35.9791 97.2209 36.1054C97.7323 36.2362 98.506 36.4302 99.5377 36.6918C100.83 36.9918 101.794 37.2309 102.44 37.4045C103.083 37.576 103.868 37.8353 104.79 38.1804C105.714 38.5278 106.403 38.8616 106.854 39.1864C107.304 39.5089 107.699 39.9397 108.049 40.4833C108.388 41.0223 108.56 41.638 108.56 42.3305C108.56 43.9702 107.84 45.2671 106.403 46.2189C104.963 47.1684 103.256 47.6421 101.28 47.6421C100.291 47.6421 99.347 47.5135 98.4432 47.2541C97.5416 46.997 96.7365 46.6068 96.0278 46.0881C95.3191 45.5693 94.7606 44.8904 94.3524 44.0469C93.942 43.2033 93.7402 42.2448 93.7402 41.1621H83.8788C83.8788 46.0024 85.4779 49.8141 88.6783 52.6018C91.8809 55.3873 96.1018 56.7812 101.343 56.7812C104.566 56.7812 107.434 56.2624 109.946 55.2272C112.458 54.1919 114.508 52.5477 116.098 50.3013C117.686 48.0571 118.482 45.355 118.482 42.2019C118.484 40.8125 118.303 39.5269 117.937 38.3406Z" fill="black"/>
<path d="M153.09 10.5059L142.007 42.583L130.6 10.5059H119.839L137.494 55.8699H146.71L163.721 10.5059H153.09Z" fill="black"/>
<path d="M199.65 38.3406C199.282 37.1519 198.854 36.137 198.36 35.2957C197.864 34.4522 197.147 33.674 196.203 32.9613C195.256 32.2486 194.429 31.6757 193.72 31.2449C193.011 30.8141 192.013 30.3698 190.721 29.9164C189.436 29.4631 188.445 29.1383 187.759 28.9466C187.07 28.7504 186.041 28.4797 184.666 28.1369C183.417 27.8369 182.484 27.6091 181.862 27.4557C181.241 27.3024 180.479 27.0655 179.577 26.743C178.676 26.4205 178.007 26.0957 177.579 25.7686C177.148 25.4461 176.774 25.0356 176.451 24.5372C176.128 24.041 175.966 23.4681 175.966 22.8208C175.966 21.4382 176.601 20.3804 177.87 19.6451C179.138 18.9098 180.629 18.5444 182.349 18.5444C184.28 18.5444 185.904 19.0293 187.214 20.0014C188.523 20.9758 189.178 22.39 189.178 24.2485H198.845C198.845 19.7127 197.416 16.1469 194.561 13.5531C191.704 10.9616 187.721 9.66467 182.609 9.66467C177.538 9.66467 173.542 10.8556 170.622 13.2306C167.699 15.6055 166.239 18.9549 166.239 23.2741C166.239 24.3116 166.347 25.295 166.56 26.2242C166.775 27.1512 167.031 27.9722 167.334 28.6872C167.632 29.3999 168.076 30.0811 168.655 30.7284C169.234 31.3757 169.761 31.917 170.232 32.3478C170.703 32.7809 171.373 33.2139 172.232 33.6447C173.089 34.0777 173.789 34.4116 174.325 34.6484C174.861 34.8875 175.634 35.1581 176.646 35.4581C177.655 35.7626 178.418 35.9791 178.931 36.1054C179.447 36.2362 180.221 36.4302 181.25 36.6918C182.542 36.9918 183.506 37.2309 184.152 37.4045C184.796 37.576 185.581 37.8353 186.503 38.1804C187.424 38.5278 188.115 38.8616 188.566 39.1864C189.017 39.5089 189.414 39.9397 189.761 40.4833C190.1 41.0223 190.273 41.638 190.273 42.3305C190.273 43.9702 189.553 45.2671 188.115 46.2189C186.675 47.1684 184.969 47.6421 182.993 47.6421C182.004 47.6421 181.057 47.5135 180.156 47.2541C179.252 46.997 178.449 46.6068 177.74 46.0881C177.032 45.5693 176.473 44.8904 176.065 44.0469C175.655 43.2033 175.453 42.2448 175.453 41.1621H165.591C165.591 46.0024 167.19 49.8141 170.391 52.6018C173.591 55.3873 177.814 56.7812 183.056 56.7812C186.278 56.7812 189.145 56.2624 191.657 55.2272C194.168 54.1919 196.221 52.5477 197.813 50.3013C199.401 48.0571 200.197 45.355 200.197 42.2019C200.197 40.8125 200.013 39.5269 199.65 38.3406Z" fill="black"/>
<path d="M96.5459 74.7347C96.1063 73.9836 95.4941 73.404 94.7069 72.989C95.3416 72.5424 95.8372 71.9718 96.1983 71.2838C96.5571 70.5914 96.7366 69.8606 96.7366 69.0848C96.7366 67.7586 96.2207 66.6489 95.1935 65.7625C94.1641 64.8761 92.879 64.4318 91.3383 64.4318H83.8811V82.5318H91.5446C93.1033 82.5318 94.4355 82.0221 95.5434 81.0049C96.6491 79.9877 97.2008 78.7562 97.2008 77.3082C97.2008 76.3406 96.9833 75.4835 96.5459 74.7347ZM87.7117 67.7653H90.9503C91.2598 67.7653 91.5379 67.8104 91.789 67.9074C92.0335 68.0044 92.2466 68.1375 92.417 68.3089C92.5875 68.4826 92.722 68.6856 92.8162 68.9156C92.9104 69.1479 92.9598 69.4118 92.9598 69.705C92.9598 70.2734 92.7781 70.7358 92.417 71.0876C92.0582 71.4417 91.567 71.6199 90.9503 71.6199H87.7117V67.7653V67.7653ZM92.7018 78.366C92.3049 78.7449 91.7935 78.9344 91.1588 78.9344H87.714V74.8745H91.1588C91.7935 74.8745 92.3049 75.064 92.7018 75.4429C93.0966 75.8218 93.2917 76.3045 93.2917 76.8909C93.2917 77.4954 93.0943 77.9893 92.7018 78.366Z" fill="black"/>
<path d="M103.725 65.0047C103.368 64.6506 102.882 64.4296 102.341 64.4296C101.262 64.4296 100.385 65.3092 100.385 66.3963V80.5651C100.385 81.1064 100.603 81.5981 100.957 81.9545C101.314 82.3131 101.801 82.5319 102.341 82.5319C103.42 82.5319 104.297 81.65 104.297 80.5651V66.3963C104.297 65.8505 104.079 65.3611 103.725 65.0047Z" fill="black"/>
<path d="M119.826 64.4296V75.47L111.931 64.4296H108.41V82.5296H112.241V71.2298L120.391 82.5296H123.632V64.4296H119.826Z" fill="black"/>
<path d="M144.61 68.6584C143.787 67.2194 142.641 66.0895 141.179 65.2707C139.712 64.452 138.082 64.0415 136.283 64.0415C135.155 64.0415 134.108 64.1926 133.136 64.4994C131.739 64.9302 130.506 65.6812 129.429 66.7413C127.604 68.5434 126.691 70.7876 126.691 73.4761C126.691 76.1668 127.606 78.411 129.429 80.2109C131.255 82.013 133.538 82.9152 136.283 82.9152C139.021 82.9152 141.305 82.0175 143.121 80.2244C144.936 78.4313 145.846 76.1804 145.846 73.4761C145.846 71.7055 145.433 70.0974 144.61 68.6584ZM141.177 76.4262C140.688 77.3081 140.015 77.9915 139.158 78.4809C138.302 78.9749 137.342 79.2185 136.281 79.2185C134.684 79.2185 133.345 78.6704 132.255 77.5788C131.165 76.4826 130.62 75.1158 130.62 73.4783C130.62 71.8409 131.165 70.4763 132.255 69.3802C132.798 68.8343 133.403 68.4261 134.072 68.1509C134.749 67.878 135.487 67.7382 136.29 67.7382C137.893 67.7382 139.232 68.284 140.302 69.3779C141.372 70.4741 141.91 71.8364 141.91 73.4761C141.91 74.5655 141.666 75.5489 141.177 76.4262Z" fill="black"/>
<path d="M157.105 73.0905L163.25 64.4296H158.699L152.814 72.7815V64.4296H148.905V82.5296H152.814V73.6882L159.164 82.5296H163.921L157.105 73.0905Z" fill="black"/>
<path d="M181.634 68.6584C180.811 67.2194 179.669 66.0895 178.205 65.2707C176.738 64.452 175.103 64.0415 173.306 64.0415C170.563 64.0415 168.278 64.9414 166.455 66.7413C164.627 68.5434 163.716 70.7876 163.716 73.4761C163.716 76.1668 164.627 78.411 166.455 80.2109C168.278 82.013 170.563 82.9152 173.306 82.9152C176.045 82.9152 178.328 82.0175 180.144 80.2244C181.959 78.4313 182.869 76.1804 182.869 73.4761C182.867 71.7055 182.455 70.0974 181.634 68.6584ZM178.202 76.4262C177.711 77.3081 177.038 77.9915 176.184 78.4809C175.327 78.9749 174.365 79.2185 173.304 79.2185C171.709 79.2185 170.368 78.6704 169.281 77.5788C168.188 76.4826 167.646 75.1158 167.646 73.4783C167.646 71.8409 168.188 70.4763 169.281 69.3802C170.366 68.284 171.712 67.7405 173.318 67.7405C174.919 67.7405 176.256 68.2863 177.328 69.3802C178.397 70.4763 178.936 71.8386 178.936 73.4783C178.933 74.5655 178.689 75.5489 178.202 76.4262Z" fill="black"/>
<path d="M196.212 75.6775C197.223 75.1948 198.017 74.4866 198.602 73.5573C199.181 72.6236 199.477 71.5838 199.477 70.429C199.477 69.2742 199.208 68.2412 198.667 67.3278C198.125 66.4143 197.376 65.7038 196.416 65.1941C195.456 64.6866 194.386 64.4318 193.202 64.4318H185.926V82.5318H189.833V76.3519H192.327L195.824 82.5318H200.195L196.212 75.6775ZM194.837 72.0823C194.361 72.5131 193.733 72.7296 192.946 72.7296H189.836V68.0495H192.946C193.476 68.0495 193.942 68.1465 194.332 68.345C194.729 68.5457 195.027 68.8186 195.234 69.1727C195.442 69.5268 195.543 69.9373 195.543 70.4042C195.543 71.0921 195.306 71.6537 194.837 72.0823Z" fill="black"/>
<path d="M87.9157 87.2026V87.8477H86.2448V91.7203H85.554V87.8477H83.8832V87.2026H87.9157Z" fill="black"/>
<path d="M92.8229 89.4808C92.8229 89.5417 92.8161 89.6296 92.8072 89.7402H88.972C89.0281 90.1574 89.1986 90.4935 89.4879 90.7483C89.775 91.0032 90.1316 91.1295 90.5532 91.1295C90.8627 91.1295 91.1385 91.0619 91.3808 90.9243C91.6207 90.7889 91.8136 90.595 91.9594 90.3424H92.6995C92.5111 90.8115 92.2285 91.1746 91.8517 91.434C91.475 91.6934 91.0421 91.8242 90.5554 91.8242C89.9073 91.8242 89.3623 91.5986 88.9249 91.1476C88.4876 90.6965 88.2678 90.1349 88.2678 89.4627C88.2678 88.7906 88.4876 88.2313 88.9249 87.7824C89.3623 87.3336 89.9073 87.108 90.5554 87.108C91.226 87.108 91.7732 87.3358 92.1949 87.7937C92.612 88.2493 92.8229 88.8109 92.8229 89.4808ZM90.5532 87.7824C90.2863 87.7824 90.0441 87.8365 89.8265 87.9403C89.6067 88.0463 89.4251 88.1974 89.2815 88.3959C89.138 88.5944 89.0393 88.8222 88.99 89.077H92.1097C92.0603 88.8154 91.9616 88.5854 91.8181 88.3869C91.6746 88.1884 91.4929 88.0373 91.2776 87.9358C91.06 87.8343 90.8178 87.7824 90.5532 87.7824Z" fill="black"/>
<path d="M96.7656 91.7226L95.2271 89.6995H94.5856V91.7226H93.8792V87.205H94.5856V89.0364H95.2338L96.622 87.205H97.4788L95.8393 89.3724L97.6447 91.7226H96.7656Z" fill="black"/>
<path d="M100.224 91.8242C99.7866 91.8242 99.3874 91.7227 99.0308 91.5197C98.6742 91.3167 98.3938 91.0325 98.1897 90.6717C97.9879 90.3085 97.887 89.9071 97.887 89.4672C97.887 88.7929 98.109 88.2313 98.5576 87.7824C99.0039 87.3336 99.5601 87.108 100.226 87.108C100.758 87.108 101.22 87.2546 101.61 87.5524C102 87.8478 102.265 88.2403 102.404 88.732H101.704C101.572 88.4433 101.372 88.2132 101.11 88.0463C100.847 87.8794 100.551 87.796 100.224 87.796C99.7642 87.796 99.3806 87.9561 99.0711 88.2764C98.7639 88.5966 98.6091 88.9936 98.6091 89.4695C98.6091 89.7807 98.6787 90.0649 98.8177 90.3175C98.9568 90.5724 99.1496 90.7709 99.3963 90.9198C99.643 91.0664 99.9189 91.1408 100.224 91.1408C100.551 91.1408 100.843 91.0551 101.101 90.8859C101.359 90.7168 101.556 90.4799 101.695 90.18H102.411C102.272 90.6807 102.005 91.0821 101.608 91.3799C101.213 91.6731 100.751 91.8242 100.224 91.8242Z" fill="black"/>
<path d="M106.82 87.205V87.85H105.149V91.7226H104.458V87.85H102.787V87.205H106.82Z" fill="black"/>
<path d="M110.98 87.205H111.37V91.7226H110.704V88.4951L108.085 91.7226H107.677V87.205H108.349V90.4077L110.98 87.205Z" fill="black"/>
<path d="M113.566 87.205H116.511V91.7226H115.804V87.8252H114.156L113.923 90.1077C113.862 90.7054 113.71 91.1272 113.465 91.3753C113.221 91.6234 112.855 91.7474 112.366 91.7474H112.241V91.0776H112.398C112.653 91.0776 112.846 91.0031 112.981 90.8565C113.113 90.7099 113.196 90.4731 113.23 90.1506L113.566 87.205Z" fill="black"/>
<path d="M119.736 88.6281C120.207 88.6281 120.593 88.7725 120.891 89.0589C121.192 89.3454 121.34 89.722 121.34 90.1844C121.34 90.6355 121.189 91.0054 120.891 91.2918C120.59 91.5783 120.207 91.7226 119.736 91.7226H117.931V87.205H118.621V88.6281H119.736V88.6281ZM119.646 91.0866C119.94 91.0866 120.176 91.0031 120.353 90.8362C120.53 90.6693 120.62 90.4506 120.62 90.1799C120.62 89.9092 120.532 89.6882 120.353 89.519C120.176 89.3499 119.94 89.2642 119.646 89.2642H118.624V91.0866H119.646V91.0866Z" fill="black"/>
<path d="M125.401 87.205H126.092V91.7226H125.401V89.7243H122.997V91.7226H122.306V87.205H122.997V89.0544H125.401V87.205Z" fill="black"/>
<path d="M129.544 91.8242C129.1 91.8242 128.696 91.7227 128.33 91.5197C127.965 91.3167 127.678 91.0348 127.474 90.6762C127.267 90.3175 127.166 89.9138 127.166 89.4672C127.166 88.7861 127.393 88.2245 127.844 87.7779C128.294 87.3313 128.862 87.108 129.544 87.108C129.992 87.108 130.398 87.2095 130.761 87.4125C131.125 87.6155 131.41 87.8974 131.618 88.2583C131.827 88.6169 131.93 89.0207 131.93 89.4672C131.93 90.1416 131.703 90.7032 131.248 91.1521C130.793 91.5987 130.225 91.8242 129.544 91.8242ZM128.357 90.6649C128.671 90.9807 129.068 91.1385 129.546 91.1385C130.026 91.1385 130.423 90.9807 130.734 90.6649C131.048 90.3491 131.205 89.9499 131.205 89.465C131.205 88.9801 131.048 88.5808 130.734 88.2651C130.42 87.9493 130.024 87.7937 129.546 87.7937C129.066 87.7937 128.669 87.9516 128.357 88.2651C128.043 88.5808 127.888 88.9801 127.888 89.465C127.888 89.9499 128.045 90.3491 128.357 90.6649Z" fill="black"/>
<path d="M137.202 89.4808C137.202 89.5417 137.196 89.6296 137.187 89.7402H133.352C133.408 90.1574 133.578 90.4935 133.867 90.7483C134.154 91.0032 134.511 91.1295 134.933 91.1295C135.242 91.1295 135.518 91.0619 135.76 90.9243C136 90.7889 136.193 90.595 136.339 90.3424H137.079C136.891 90.8115 136.608 91.1746 136.231 91.434C135.854 91.6934 135.422 91.8242 134.935 91.8242C134.287 91.8242 133.742 91.5986 133.304 91.1476C132.867 90.6965 132.647 90.1349 132.647 89.4627C132.647 88.7906 132.867 88.2313 133.304 87.7824C133.742 87.3336 134.287 87.108 134.935 87.108C135.606 87.108 136.153 87.3358 136.574 87.7937C136.992 88.2493 137.202 88.8109 137.202 89.4808ZM134.933 87.7824C134.666 87.7824 134.424 87.8365 134.206 87.9403C133.986 88.0463 133.805 88.1974 133.661 88.3959C133.518 88.5944 133.419 88.8222 133.37 89.077H136.489C136.44 88.8154 136.341 88.5854 136.198 88.3869C136.054 88.1884 135.872 88.0373 135.657 87.9358C135.44 87.8343 135.197 87.7824 134.933 87.7824Z" fill="black"/>
<path d="M140.439 87.205H144.247V91.7226H143.547V87.859H141.143V91.7226H140.436V87.205H140.439Z" fill="black"/>
<path d="M148.057 87.1058C148.728 87.1058 149.282 87.3291 149.717 87.7756C150.152 88.2222 150.37 88.7861 150.37 89.465C150.37 90.1394 150.152 90.701 149.717 91.1498C149.282 91.5986 148.728 91.8242 148.057 91.8242C147.38 91.8242 146.824 91.5896 146.386 91.1205V93.3376H145.68V87.2073H146.162L146.303 87.902C146.514 87.6516 146.77 87.4554 147.073 87.3155C147.373 87.1757 147.701 87.1058 148.057 87.1058ZM148.006 91.1385C148.483 91.1385 148.876 90.9806 149.188 90.6626C149.497 90.3446 149.654 89.9454 149.654 89.4672C149.654 88.9868 149.499 88.5899 149.188 88.2718C148.878 87.9538 148.483 87.7959 148.006 87.7959C147.528 87.7959 147.133 87.9561 146.822 88.2764C146.508 88.5966 146.351 88.9936 146.351 89.4695C146.351 89.7807 146.422 90.0649 146.564 90.3221C146.705 90.5792 146.902 90.7799 147.158 90.9243C147.414 91.0641 147.696 91.1385 148.006 91.1385Z" fill="black"/>
<path d="M153.462 91.8242C153.018 91.8242 152.615 91.7227 152.249 91.5197C151.884 91.3167 151.596 91.0348 151.392 90.6762C151.186 90.3175 151.085 89.9138 151.085 89.4672C151.085 88.7861 151.312 88.2245 151.762 87.7779C152.213 87.3313 152.781 87.108 153.462 87.108C153.911 87.108 154.317 87.2095 154.68 87.4125C155.044 87.6155 155.328 87.8974 155.537 88.2583C155.746 88.6169 155.849 89.0207 155.849 89.4672C155.849 90.1416 155.622 90.7032 155.167 91.1521C154.714 91.5987 154.144 91.8242 153.462 91.8242ZM152.278 90.6649C152.592 90.9807 152.989 91.1385 153.467 91.1385C153.947 91.1385 154.344 90.9807 154.656 90.6649C154.97 90.3491 155.127 89.9499 155.127 89.465C155.127 88.9801 154.97 88.5808 154.656 88.2651C154.342 87.9493 153.945 87.7937 153.467 87.7937C152.987 87.7937 152.59 87.9516 152.278 88.2651C151.964 88.5808 151.81 88.9801 151.81 89.465C151.807 89.9499 151.964 90.3491 152.278 90.6649Z" fill="black"/>
<path d="M160.224 87.205H160.614V91.7226H159.948V88.4951L157.329 91.7226H156.921V87.205H157.593V90.4077L160.224 87.205Z" fill="black"/>
<path d="M164.383 89.3387C164.793 89.562 164.999 89.9296 164.999 90.4439C164.999 90.7123 164.925 90.9491 164.779 91.1589C164.634 91.3686 164.427 91.531 164.165 91.6483C163.903 91.7656 163.607 91.8242 163.279 91.8242C162.801 91.8242 162.409 91.7024 162.102 91.4566C161.794 91.2107 161.619 90.8814 161.581 90.4687H162.22C162.265 90.6807 162.382 90.8476 162.57 90.9671C162.759 91.0867 162.994 91.1476 163.277 91.1476C163.577 91.1476 163.822 91.0777 164.017 90.9378C164.21 90.798 164.308 90.6153 164.308 90.3852C164.308 90.1732 164.226 89.9973 164.064 89.8575C163.9 89.7176 163.694 89.6477 163.445 89.6477H162.779V89.0703H163.445C163.678 89.0703 163.864 89.0094 164.006 88.8899C164.147 88.7703 164.219 88.6147 164.219 88.4252C164.219 88.22 164.134 88.0508 163.961 87.9245C163.788 87.796 163.562 87.7328 163.279 87.7328C163.03 87.7328 162.822 87.7892 162.656 87.8997C162.49 88.0102 162.384 88.1614 162.339 88.3508H161.7C161.723 88.105 161.803 87.8884 161.945 87.699C162.086 87.5095 162.274 87.3629 162.51 87.2592C162.745 87.1554 163.008 87.1035 163.295 87.1035C163.755 87.1035 164.136 87.2231 164.434 87.4622C164.732 87.7012 164.883 88.0035 164.883 88.3643C164.883 88.8042 164.717 89.1267 164.383 89.3387Z" fill="black"/>
<path d="M168.991 89.3815C169.218 89.4649 169.399 89.6048 169.536 89.7987C169.673 89.995 169.74 90.2137 169.74 90.4596C169.74 90.8227 169.608 91.1227 169.346 91.364C169.083 91.6031 168.754 91.7226 168.361 91.7226H166.107V87.205H168.336C168.709 87.205 169.009 87.3132 169.242 87.5275C169.476 87.7418 169.592 88.0169 169.592 88.3507C169.592 88.5018 169.568 88.6439 169.518 88.777C169.469 88.9101 169.399 89.0296 169.31 89.1334C169.218 89.2371 169.112 89.3183 168.991 89.3815ZM168.89 88.477C168.89 88.2921 168.83 88.1455 168.706 88.0372C168.585 87.929 168.426 87.8748 168.233 87.8748H166.796V89.0702H168.233C168.433 89.0702 168.592 89.0161 168.711 88.9078C168.832 88.7996 168.89 88.6552 168.89 88.477ZM168.276 91.0528C168.415 91.0528 168.54 91.0234 168.655 90.9648C168.769 90.9062 168.857 90.8272 168.917 90.7257C168.978 90.6265 169.009 90.5115 169.009 90.3874C169.009 90.2634 168.978 90.1483 168.917 90.0446C168.857 89.9408 168.769 89.8619 168.655 89.8055C168.54 89.7491 168.413 89.722 168.267 89.722H166.796V91.0528H168.276Z" fill="black"/>
<path d="M172.9 91.8242C172.456 91.8242 172.053 91.7227 171.687 91.5197C171.321 91.3167 171.034 91.0348 170.83 90.6762C170.624 90.3175 170.523 89.9138 170.523 89.4672C170.523 88.7861 170.749 88.2245 171.2 87.7779C171.651 87.3313 172.218 87.108 172.9 87.108C173.349 87.108 173.755 87.2095 174.118 87.4125C174.481 87.6155 174.766 87.8974 174.975 88.2583C175.183 88.6169 175.287 89.0207 175.287 89.4672C175.287 90.1416 175.06 90.7032 174.605 91.1521C174.149 91.5987 173.582 91.8242 172.9 91.8242ZM171.714 90.6649C172.028 90.9807 172.425 91.1385 172.903 91.1385C173.382 91.1385 173.779 90.9807 174.091 90.6649C174.405 90.3491 174.562 89.9499 174.562 89.465C174.562 88.9801 174.405 88.5808 174.091 88.2651C173.777 87.9493 173.38 87.7937 172.903 87.7937C172.423 87.7937 172.026 87.9516 171.714 88.2651C171.4 88.5808 171.245 88.9801 171.245 89.465C171.245 89.9499 171.4 90.3491 171.714 90.6649Z" fill="black"/>
<path d="M180.019 91.0528H180.627V92.918H179.978V91.7226H176.361V92.918H175.713V91.0528H176.195C176.327 90.931 176.43 90.755 176.502 90.5295C176.574 90.304 176.639 89.9589 176.697 89.492C176.756 89.0251 176.825 88.265 176.91 87.205H180.021V91.0528H180.019ZM177.541 87.8342C177.491 88.5808 177.44 89.1627 177.386 89.5777C177.334 89.9927 177.274 90.3107 177.206 90.5318C177.139 90.7528 177.054 90.9265 176.949 91.055H179.328V87.8342H177.541V87.8342Z" fill="black"/>
<path d="M183.562 91.8242C183.125 91.8242 182.726 91.7227 182.369 91.5197C182.013 91.3167 181.732 91.0325 181.528 90.6717C181.326 90.3085 181.225 89.9071 181.225 89.4672C181.225 88.7929 181.447 88.2313 181.896 87.7824C182.342 87.3336 182.899 87.108 183.562 87.108C184.094 87.108 184.556 87.2546 184.946 87.5524C185.336 87.8478 185.601 88.2403 185.74 88.732H185.04C184.908 88.4433 184.708 88.2132 184.446 88.0463C184.184 87.8794 183.888 87.796 183.56 87.796C183.1 87.796 182.717 87.9561 182.407 88.2764C182.1 88.5966 181.945 88.9936 181.945 89.4695C181.945 89.7807 182.015 90.0649 182.154 90.3175C182.293 90.5724 182.486 90.7709 182.733 90.9198C182.979 91.0664 183.255 91.1408 183.56 91.1408C183.888 91.1408 184.179 91.0551 184.437 90.8859C184.695 90.7168 184.892 90.4799 185.031 90.18H185.747C185.608 90.6807 185.341 91.0821 184.944 91.3799C184.551 91.6731 184.089 91.8242 183.562 91.8242Z" fill="black"/>
<path d="M190.158 87.205V87.85H188.487V91.7226H187.797V87.85H186.126V87.205H190.158Z" fill="black"/>
<path d="M193.901 89.3815C194.128 89.4649 194.31 89.6048 194.446 89.7987C194.583 89.995 194.65 90.2137 194.65 90.4596C194.65 90.8227 194.518 91.1227 194.256 91.364C193.993 91.6031 193.664 91.7226 193.271 91.7226H191.015V87.205H193.244C193.617 87.205 193.917 87.3132 194.15 87.5275C194.384 87.7418 194.5 88.0169 194.5 88.3507C194.5 88.5018 194.476 88.6439 194.426 88.777C194.377 88.9101 194.307 89.0296 194.218 89.1334C194.128 89.2371 194.023 89.3183 193.901 89.3815ZM193.801 88.477C193.801 88.2921 193.74 88.1455 193.617 88.0372C193.495 87.929 193.336 87.8748 193.143 87.8748H191.706V89.0702H193.143C193.343 89.0702 193.502 89.0161 193.621 88.9078C193.74 88.7996 193.801 88.6552 193.801 88.477ZM193.186 91.0528C193.325 91.0528 193.451 91.0234 193.565 90.9648C193.679 90.9062 193.767 90.8272 193.827 90.7257C193.888 90.6265 193.919 90.5115 193.919 90.3874C193.919 90.2634 193.888 90.1483 193.827 90.0446C193.767 89.9408 193.679 89.8619 193.565 89.8055C193.451 89.7491 193.323 89.722 193.177 89.722H191.706V91.0528H193.186Z" fill="black"/>
<path d="M197.808 91.8242C197.364 91.8242 196.961 91.7227 196.595 91.5197C196.229 91.3167 195.942 91.0348 195.738 90.6762C195.532 90.3175 195.431 89.9138 195.431 89.4672C195.431 88.7861 195.658 88.2245 196.108 87.7779C196.559 87.3313 197.127 87.108 197.808 87.108C198.257 87.108 198.663 87.2095 199.026 87.4125C199.389 87.6155 199.674 87.8974 199.883 88.2583C200.091 88.6169 200.195 89.0207 200.195 89.4672C200.195 90.1416 199.968 90.7032 199.513 91.1521C199.06 91.5987 198.492 91.8242 197.808 91.8242ZM196.624 90.6649C196.938 90.9807 197.335 91.1385 197.813 91.1385C198.293 91.1385 198.69 90.9807 199.001 90.6649C199.315 90.3491 199.472 89.9499 199.472 89.465C199.472 88.9801 199.315 88.5808 199.001 88.2651C198.687 87.9493 198.291 87.7937 197.813 87.7937C197.333 87.7937 196.936 87.9516 196.624 88.2651C196.31 88.5808 196.155 88.9801 196.155 89.465C196.153 89.9499 196.31 90.3491 196.624 90.6649Z" fill="black"/>
<path d="M102.328 81.1536C102.189 76.1893 102.047 71.2228 101.908 66.2585C101.902 66.0127 102.099 65.8074 102.343 65.8074C102.59 65.8074 102.785 66.0127 102.778 66.2585C102.628 71.2228 102.478 76.1893 102.328 81.1536Z" fill="white"/>
<path d="M102.343 67.5126C102.278 67.5126 102.227 67.4607 102.227 67.3953V66.2292C102.227 66.1638 102.278 66.1119 102.343 66.1119C102.408 66.1119 102.46 66.1638 102.46 66.2292V67.3953C102.46 67.4607 102.406 67.5126 102.343 67.5126Z" fill="black"/>
</svg>
